<mxfile host="app.diagrams.net" agent="Mozilla/5.0 (Windows NT 10.0; Win64; x64) AppleWebKit/537.36 (KHTML, like Gecko) Chrome/139.0.0.0 Safari/537.36" version="28.1.0">
  <diagram name="Page-1" id="fo3w4da_UCe7nfROMg9D">
    <mxGraphModel dx="2919" dy="957" grid="1" gridSize="10" guides="1" tooltips="1" connect="1" arrows="1" fold="1" page="1" pageScale="1" pageWidth="850" pageHeight="1100" background="none" math="0" shadow="0">
      <root>
        <mxCell id="0" />
        <mxCell id="1" parent="0" />
        <mxCell id="pRzVGngoA3gTcLtupPJn-1" value="PLOS" style="whiteSpace=wrap;html=1;align=center;rounded=0;" parent="1" vertex="1">
          <mxGeometry x="-291" y="107" width="80" height="30" as="geometry" />
        </mxCell>
        <mxCell id="pRzVGngoA3gTcLtupPJn-2" value="Programs" style="whiteSpace=wrap;html=1;align=center;rounded=0;" parent="1" vertex="1">
          <mxGeometry x="306" y="151" width="80" height="30" as="geometry" />
        </mxCell>
        <mxCell id="pRzVGngoA3gTcLtupPJn-3" value="Has" style="shape=rhombus;perimeter=rhombusPerimeter;whiteSpace=wrap;html=1;align=center;rounded=0;" parent="1" vertex="1">
          <mxGeometry x="24" y="161" width="60" height="20" as="geometry" />
        </mxCell>
        <mxCell id="pRzVGngoA3gTcLtupPJn-4" value="" style="fontSize=12;html=1;endArrow=ERoneToMany;rounded=0;exitX=1;exitY=0.5;exitDx=0;exitDy=0;entryX=0;entryY=0.5;entryDx=0;entryDy=0;edgeStyle=orthogonalEdgeStyle;" parent="1" source="pRzVGngoA3gTcLtupPJn-3" target="pRzVGngoA3gTcLtupPJn-2" edge="1">
          <mxGeometry width="100" height="100" relative="1" as="geometry">
            <mxPoint x="385" y="340" as="sourcePoint" />
            <mxPoint x="285" y="260" as="targetPoint" />
          </mxGeometry>
        </mxCell>
        <mxCell id="pRzVGngoA3gTcLtupPJn-5" value="" style="fontSize=12;html=1;endArrow=ERoneToMany;rounded=0;entryX=1;entryY=0.5;entryDx=0;entryDy=0;exitX=0;exitY=0.5;exitDx=0;exitDy=0;edgeStyle=orthogonalEdgeStyle;" parent="1" source="pRzVGngoA3gTcLtupPJn-3" target="pRzVGngoA3gTcLtupPJn-1" edge="1">
          <mxGeometry width="100" height="100" relative="1" as="geometry">
            <mxPoint x="235" y="460" as="sourcePoint" />
            <mxPoint x="335" y="360" as="targetPoint" />
          </mxGeometry>
        </mxCell>
        <mxCell id="pRzVGngoA3gTcLtupPJn-10" value="HOD" style="whiteSpace=wrap;html=1;align=center;rounded=0;" parent="1" vertex="1">
          <mxGeometry x="-20" y="80" width="102" height="40" as="geometry" />
        </mxCell>
        <mxCell id="pRzVGngoA3gTcLtupPJn-11" value="Add" style="shape=rhombus;perimeter=rhombusPerimeter;whiteSpace=wrap;html=1;align=center;rounded=0;" parent="1" vertex="1">
          <mxGeometry x="290" y="90" width="60" height="20" as="geometry" />
        </mxCell>
        <mxCell id="pRzVGngoA3gTcLtupPJn-13" value="" style="fontSize=12;html=1;endArrow=ERoneToMany;rounded=0;exitX=1;exitY=0.5;exitDx=0;exitDy=0;" parent="1" source="pRzVGngoA3gTcLtupPJn-11" target="pRzVGngoA3gTcLtupPJn-2" edge="1">
          <mxGeometry width="100" height="100" relative="1" as="geometry">
            <mxPoint x="335" y="339" as="sourcePoint" />
            <mxPoint x="325" y="240" as="targetPoint" />
          </mxGeometry>
        </mxCell>
        <mxCell id="pRzVGngoA3gTcLtupPJn-15" value="P ID" style="ellipse;whiteSpace=wrap;html=1;align=center;fontStyle=4;rounded=0;" parent="1" vertex="1">
          <mxGeometry x="412" y="86" width="80" height="30" as="geometry" />
        </mxCell>
        <mxCell id="pRzVGngoA3gTcLtupPJn-16" value="" style="endArrow=none;html=1;rounded=0;exitX=0.5;exitY=1;exitDx=0;exitDy=0;entryX=0.75;entryY=0;entryDx=0;entryDy=0;" parent="1" source="pRzVGngoA3gTcLtupPJn-15" target="pRzVGngoA3gTcLtupPJn-2" edge="1">
          <mxGeometry relative="1" as="geometry">
            <mxPoint x="365" y="257" as="sourcePoint" />
            <mxPoint x="375" y="160" as="targetPoint" />
          </mxGeometry>
        </mxCell>
        <mxCell id="pRzVGngoA3gTcLtupPJn-18" value="" style="endArrow=none;html=1;rounded=0;exitX=0;exitY=0.5;exitDx=0;exitDy=0;entryX=1;entryY=0.5;entryDx=0;entryDy=0;" parent="1" source="pRzVGngoA3gTcLtupPJn-35" target="pRzVGngoA3gTcLtupPJn-2" edge="1">
          <mxGeometry relative="1" as="geometry">
            <mxPoint x="425.00000000000045" y="240.0000000000001" as="sourcePoint" />
            <mxPoint x="355" y="320.0000000000001" as="targetPoint" />
          </mxGeometry>
        </mxCell>
        <mxCell id="pRzVGngoA3gTcLtupPJn-21" value="" style="fontSize=12;html=1;endArrow=ERoneToMany;rounded=0;exitX=0;exitY=0.5;exitDx=0;exitDy=0;entryX=1;entryY=0.25;entryDx=0;entryDy=0;" parent="1" source="pRzVGngoA3gTcLtupPJn-24" target="pRzVGngoA3gTcLtupPJn-22" edge="1">
          <mxGeometry width="100" height="100" relative="1" as="geometry">
            <mxPoint x="245" y="340" as="sourcePoint" />
            <mxPoint x="235" y="450" as="targetPoint" />
          </mxGeometry>
        </mxCell>
        <mxCell id="pRzVGngoA3gTcLtupPJn-22" value="Courses" style="whiteSpace=wrap;html=1;align=center;rounded=0;" parent="1" vertex="1">
          <mxGeometry x="51" y="260" width="80" height="30" as="geometry" />
        </mxCell>
        <mxCell id="pRzVGngoA3gTcLtupPJn-24" value="Has" style="shape=rhombus;perimeter=rhombusPerimeter;whiteSpace=wrap;html=1;align=center;rounded=0;" parent="1" vertex="1">
          <mxGeometry x="318" y="256" width="60" height="20" as="geometry" />
        </mxCell>
        <mxCell id="pRzVGngoA3gTcLtupPJn-28" value="C Code" style="ellipse;whiteSpace=wrap;html=1;align=center;fontStyle=4;rounded=0;" parent="1" vertex="1">
          <mxGeometry x="61" y="185" width="72" height="27" as="geometry" />
        </mxCell>
        <mxCell id="pRzVGngoA3gTcLtupPJn-30" value="" style="endArrow=none;html=1;rounded=0;exitX=0.5;exitY=1;exitDx=0;exitDy=0;entryX=0.25;entryY=0;entryDx=0;entryDy=0;" parent="1" source="1Q4ybMo_WvViaDkqTn1m-21" target="pRzVGngoA3gTcLtupPJn-22" edge="1">
          <mxGeometry relative="1" as="geometry">
            <mxPoint x="65" y="317.5" as="sourcePoint" />
            <mxPoint x="-105" y="395" as="targetPoint" />
          </mxGeometry>
        </mxCell>
        <mxCell id="pRzVGngoA3gTcLtupPJn-31" value="" style="endArrow=none;html=1;rounded=0;exitX=0.4;exitY=0.983;exitDx=0;exitDy=0;entryX=0.75;entryY=0;entryDx=0;entryDy=0;exitPerimeter=0;" parent="1" source="pRzVGngoA3gTcLtupPJn-28" target="pRzVGngoA3gTcLtupPJn-22" edge="1">
          <mxGeometry relative="1" as="geometry">
            <mxPoint x="45.0000000000141" y="445.0000000000001" as="sourcePoint" />
            <mxPoint x="105" y="370" as="targetPoint" />
          </mxGeometry>
        </mxCell>
        <mxCell id="pRzVGngoA3gTcLtupPJn-35" value="PName" style="ellipse;whiteSpace=wrap;html=1;align=center;rounded=0;" parent="1" vertex="1">
          <mxGeometry x="435" y="148" width="80" height="25" as="geometry" />
        </mxCell>
        <mxCell id="pRzVGngoA3gTcLtupPJn-38" value="" style="fontSize=12;html=1;endArrow=ERoneToMany;rounded=0;exitX=0;exitY=0.5;exitDx=0;exitDy=0;edgeStyle=orthogonalEdgeStyle;entryX=0.75;entryY=1;entryDx=0;entryDy=0;" parent="1" source="pRzVGngoA3gTcLtupPJn-39" target="pRzVGngoA3gTcLtupPJn-1" edge="1">
          <mxGeometry width="100" height="100" relative="1" as="geometry">
            <mxPoint x="-15" y="555" as="sourcePoint" />
            <mxPoint x="-165" y="290" as="targetPoint" />
          </mxGeometry>
        </mxCell>
        <mxCell id="pRzVGngoA3gTcLtupPJn-39" value="map on" style="shape=rhombus;perimeter=rhombusPerimeter;whiteSpace=wrap;html=1;align=center;rounded=0;" parent="1" vertex="1">
          <mxGeometry x="-181" y="183" width="70" height="60" as="geometry" />
        </mxCell>
        <mxCell id="pRzVGngoA3gTcLtupPJn-40" value="" style="fontSize=12;html=1;endArrow=ERoneToMany;rounded=0;entryX=0;entryY=0.75;entryDx=0;entryDy=0;exitX=1;exitY=0.5;exitDx=0;exitDy=0;edgeStyle=orthogonalEdgeStyle;" parent="1" source="pRzVGngoA3gTcLtupPJn-39" target="pRzVGngoA3gTcLtupPJn-22" edge="1">
          <mxGeometry width="100" height="100" relative="1" as="geometry">
            <mxPoint x="135" y="435" as="sourcePoint" />
            <mxPoint x="45" y="363" as="targetPoint" />
          </mxGeometry>
        </mxCell>
        <mxCell id="pRzVGngoA3gTcLtupPJn-51" value="" style="endArrow=none;html=1;rounded=0;entryX=0.5;entryY=1;entryDx=0;entryDy=0;exitX=0.5;exitY=0;exitDx=0;exitDy=0;" parent="1" source="pRzVGngoA3gTcLtupPJn-52" target="pRzVGngoA3gTcLtupPJn-22" edge="1">
          <mxGeometry relative="1" as="geometry">
            <mxPoint x="-5" y="530" as="sourcePoint" />
            <mxPoint x="85" y="430.0000000000001" as="targetPoint" />
          </mxGeometry>
        </mxCell>
        <mxCell id="pRzVGngoA3gTcLtupPJn-52" value="" style="ellipse;whiteSpace=wrap;html=1;aspect=fixed;rounded=0;" parent="1" vertex="1">
          <mxGeometry x="77" y="336" width="30" height="30" as="geometry" />
        </mxCell>
        <mxCell id="pRzVGngoA3gTcLtupPJn-53" value="Offered Courses" style="whiteSpace=wrap;html=1;align=center;rounded=0;" parent="1" vertex="1">
          <mxGeometry x="55" y="535" width="80" height="30" as="geometry" />
        </mxCell>
        <mxCell id="pRzVGngoA3gTcLtupPJn-54" value="" style="endArrow=none;html=1;rounded=0;exitX=0.5;exitY=1;exitDx=0;exitDy=0;entryX=0.5;entryY=0;entryDx=0;entryDy=0;" parent="1" source="pRzVGngoA3gTcLtupPJn-52" target="pRzVGngoA3gTcLtupPJn-53" edge="1">
          <mxGeometry relative="1" as="geometry">
            <mxPoint x="105" y="410" as="sourcePoint" />
            <mxPoint x="145" y="400" as="targetPoint" />
          </mxGeometry>
        </mxCell>
        <mxCell id="pRzVGngoA3gTcLtupPJn-56" value="" style="fontSize=12;html=1;endArrow=ERoneToMany;rounded=0;entryX=1;entryY=0.5;entryDx=0;entryDy=0;exitX=0;exitY=0.5;exitDx=0;exitDy=0;edgeStyle=orthogonalEdgeStyle;" parent="1" source="pRzVGngoA3gTcLtupPJn-57" target="pRzVGngoA3gTcLtupPJn-59" edge="1">
          <mxGeometry width="100" height="100" relative="1" as="geometry">
            <mxPoint x="-45" y="675" as="sourcePoint" />
            <mxPoint x="-95" y="400" as="targetPoint" />
          </mxGeometry>
        </mxCell>
        <mxCell id="pRzVGngoA3gTcLtupPJn-57" value="Enrolled" style="shape=rhombus;perimeter=rhombusPerimeter;whiteSpace=wrap;html=1;align=center;rounded=0;" parent="1" vertex="1">
          <mxGeometry x="-95" y="520" width="70" height="60" as="geometry" />
        </mxCell>
        <mxCell id="pRzVGngoA3gTcLtupPJn-58" value="" style="fontSize=12;html=1;endArrow=ERoneToMany;rounded=0;entryX=0;entryY=0.5;entryDx=0;entryDy=0;exitX=1;exitY=0.5;exitDx=0;exitDy=0;edgeStyle=orthogonalEdgeStyle;" parent="1" source="pRzVGngoA3gTcLtupPJn-57" target="pRzVGngoA3gTcLtupPJn-53" edge="1">
          <mxGeometry width="100" height="100" relative="1" as="geometry">
            <mxPoint x="105" y="555" as="sourcePoint" />
            <mxPoint x="25" y="473" as="targetPoint" />
          </mxGeometry>
        </mxCell>
        <mxCell id="pRzVGngoA3gTcLtupPJn-59" value="Student" style="whiteSpace=wrap;html=1;align=center;rounded=0;" parent="1" vertex="1">
          <mxGeometry x="-237" y="535" width="80" height="30" as="geometry" />
        </mxCell>
        <mxCell id="pRzVGngoA3gTcLtupPJn-61" value="Teach" style="shape=rhombus;perimeter=rhombusPerimeter;whiteSpace=wrap;html=1;align=center;rounded=0;" parent="1" vertex="1">
          <mxGeometry x="235" y="524" width="70" height="52" as="geometry" />
        </mxCell>
        <mxCell id="pRzVGngoA3gTcLtupPJn-62" value="" style="fontSize=12;html=1;endArrow=ERoneToMany;rounded=0;entryX=0;entryY=0.5;entryDx=0;entryDy=0;exitX=1;exitY=0.5;exitDx=0;exitDy=0;edgeStyle=orthogonalEdgeStyle;" parent="1" source="pRzVGngoA3gTcLtupPJn-61" target="pRzVGngoA3gTcLtupPJn-63" edge="1">
          <mxGeometry width="100" height="100" relative="1" as="geometry">
            <mxPoint x="615" y="515" as="sourcePoint" />
            <mxPoint x="565" y="435" as="targetPoint" />
          </mxGeometry>
        </mxCell>
        <mxCell id="pRzVGngoA3gTcLtupPJn-63" value="Teacher" style="whiteSpace=wrap;html=1;align=center;rounded=0;" parent="1" vertex="1">
          <mxGeometry x="363" y="541.5" width="80" height="30" as="geometry" />
        </mxCell>
        <mxCell id="pRzVGngoA3gTcLtupPJn-64" value="T ID" style="ellipse;whiteSpace=wrap;html=1;align=center;fontStyle=4;rounded=0;" parent="1" vertex="1">
          <mxGeometry x="460" y="518" width="80" height="30" as="geometry" />
        </mxCell>
        <mxCell id="pRzVGngoA3gTcLtupPJn-65" value="" style="endArrow=none;html=1;rounded=0;exitX=0.5;exitY=1;exitDx=0;exitDy=0;entryX=0.64;entryY=0.094;entryDx=0;entryDy=0;entryPerimeter=0;" parent="1" source="pRzVGngoA3gTcLtupPJn-64" target="pRzVGngoA3gTcLtupPJn-63" edge="1">
          <mxGeometry relative="1" as="geometry">
            <mxPoint x="365" y="422" as="sourcePoint" />
            <mxPoint x="355" y="410" as="targetPoint" />
          </mxGeometry>
        </mxCell>
        <mxCell id="pRzVGngoA3gTcLtupPJn-66" value="TName" style="ellipse;whiteSpace=wrap;html=1;align=center;rounded=0;" parent="1" vertex="1">
          <mxGeometry x="466" y="554" width="80" height="25" as="geometry" />
        </mxCell>
        <mxCell id="pRzVGngoA3gTcLtupPJn-67" value="" style="endArrow=none;html=1;rounded=0;exitX=0;exitY=0.5;exitDx=0;exitDy=0;entryX=1;entryY=0.5;entryDx=0;entryDy=0;" parent="1" source="pRzVGngoA3gTcLtupPJn-66" target="pRzVGngoA3gTcLtupPJn-63" edge="1">
          <mxGeometry relative="1" as="geometry">
            <mxPoint x="445.00000000000045" y="420.0000000000001" as="sourcePoint" />
            <mxPoint x="395" y="440" as="targetPoint" />
          </mxGeometry>
        </mxCell>
        <mxCell id="pRzVGngoA3gTcLtupPJn-75" value="CLOS" style="whiteSpace=wrap;html=1;align=center;rounded=0;" parent="1" vertex="1">
          <mxGeometry x="-443" y="406" width="100" height="30" as="geometry" />
        </mxCell>
        <mxCell id="1Q4ybMo_WvViaDkqTn1m-2" value="Percentage" style="ellipse;whiteSpace=wrap;html=1;align=center;rounded=0;" parent="1" vertex="1">
          <mxGeometry x="-243" y="242" width="80" height="27" as="geometry" />
        </mxCell>
        <mxCell id="1Q4ybMo_WvViaDkqTn1m-3" style="edgeStyle=orthogonalEdgeStyle;rounded=0;orthogonalLoop=1;jettySize=auto;html=1;exitX=0.5;exitY=1;exitDx=0;exitDy=0;" parent="1" source="pRzVGngoA3gTcLtupPJn-53" target="pRzVGngoA3gTcLtupPJn-53" edge="1">
          <mxGeometry relative="1" as="geometry" />
        </mxCell>
        <mxCell id="1Q4ybMo_WvViaDkqTn1m-6" value="Description" style="ellipse;whiteSpace=wrap;html=1;align=center;rounded=0;" parent="1" vertex="1">
          <mxGeometry x="-291" y="47" width="80" height="25" as="geometry" />
        </mxCell>
        <mxCell id="1Q4ybMo_WvViaDkqTn1m-7" value="" style="endArrow=none;html=1;rounded=0;entryX=0.379;entryY=0.044;entryDx=0;entryDy=0;entryPerimeter=0;" parent="1" source="1Q4ybMo_WvViaDkqTn1m-6" target="pRzVGngoA3gTcLtupPJn-1" edge="1">
          <mxGeometry relative="1" as="geometry">
            <mxPoint x="-145" y="200" as="sourcePoint" />
            <mxPoint x="-115" y="265.5" as="targetPoint" />
            <Array as="points" />
          </mxGeometry>
        </mxCell>
        <mxCell id="1Q4ybMo_WvViaDkqTn1m-8" value="PLO ID" style="ellipse;whiteSpace=wrap;html=1;align=center;fontStyle=4;rounded=0;" parent="1" vertex="1">
          <mxGeometry x="-205" y="53" width="80" height="30" as="geometry" />
        </mxCell>
        <mxCell id="1Q4ybMo_WvViaDkqTn1m-9" value="" style="endArrow=none;html=1;rounded=0;exitX=0.75;exitY=0;exitDx=0;exitDy=0;entryX=0.5;entryY=1;entryDx=0;entryDy=0;" parent="1" source="pRzVGngoA3gTcLtupPJn-1" target="1Q4ybMo_WvViaDkqTn1m-8" edge="1">
          <mxGeometry relative="1" as="geometry">
            <mxPoint x="-45" y="200" as="sourcePoint" />
            <mxPoint x="-25" y="178" as="targetPoint" />
          </mxGeometry>
        </mxCell>
        <mxCell id="1Q4ybMo_WvViaDkqTn1m-12" value="" style="endArrow=none;html=1;rounded=0;entryX=0;entryY=1;entryDx=0;entryDy=0;exitX=0.5;exitY=0;exitDx=0;exitDy=0;" parent="1" source="1Q4ybMo_WvViaDkqTn1m-2" target="pRzVGngoA3gTcLtupPJn-39" edge="1">
          <mxGeometry relative="1" as="geometry">
            <mxPoint x="-210" y="320" as="sourcePoint" />
            <mxPoint x="-95" y="205" as="targetPoint" />
          </mxGeometry>
        </mxCell>
        <mxCell id="1Q4ybMo_WvViaDkqTn1m-13" value="map on" style="shape=rhombus;perimeter=rhombusPerimeter;whiteSpace=wrap;html=1;align=center;rounded=0;" parent="1" vertex="1">
          <mxGeometry x="-441" y="92" width="70" height="60" as="geometry" />
        </mxCell>
        <mxCell id="1Q4ybMo_WvViaDkqTn1m-14" value="" style="fontSize=12;html=1;endArrow=ERoneToMany;rounded=0;exitX=1;exitY=0.5;exitDx=0;exitDy=0;entryX=0;entryY=0.5;entryDx=0;entryDy=0;" parent="1" source="1Q4ybMo_WvViaDkqTn1m-13" target="pRzVGngoA3gTcLtupPJn-1" edge="1">
          <mxGeometry width="100" height="100" relative="1" as="geometry">
            <mxPoint x="185" y="270" as="sourcePoint" />
            <mxPoint x="-255" y="310" as="targetPoint" />
          </mxGeometry>
        </mxCell>
        <mxCell id="1Q4ybMo_WvViaDkqTn1m-15" value="" style="fontSize=12;html=1;endArrow=ERoneToMany;rounded=0;entryX=0.375;entryY=0;entryDx=0;entryDy=0;entryPerimeter=0;" parent="1" source="1Q4ybMo_WvViaDkqTn1m-13" target="pRzVGngoA3gTcLtupPJn-75" edge="1">
          <mxGeometry width="100" height="100" relative="1" as="geometry">
            <mxPoint x="195" y="280" as="sourcePoint" />
            <mxPoint x="-385" y="390" as="targetPoint" />
          </mxGeometry>
        </mxCell>
        <mxCell id="1Q4ybMo_WvViaDkqTn1m-16" value="Has" style="shape=rhombus;perimeter=rhombusPerimeter;whiteSpace=wrap;html=1;align=center;rounded=0;" parent="1" vertex="1">
          <mxGeometry x="-136" y="410.5" width="60" height="20" as="geometry" />
        </mxCell>
        <mxCell id="1Q4ybMo_WvViaDkqTn1m-17" value="" style="fontSize=12;html=1;endArrow=ERoneToMany;rounded=0;exitX=0;exitY=0.5;exitDx=0;exitDy=0;entryX=1;entryY=0.5;entryDx=0;entryDy=0;" parent="1" source="1Q4ybMo_WvViaDkqTn1m-16" target="pRzVGngoA3gTcLtupPJn-75" edge="1">
          <mxGeometry width="100" height="100" relative="1" as="geometry">
            <mxPoint x="270" y="375" as="sourcePoint" />
            <mxPoint x="145" y="375" as="targetPoint" />
          </mxGeometry>
        </mxCell>
        <mxCell id="1Q4ybMo_WvViaDkqTn1m-21" value="CName" style="ellipse;whiteSpace=wrap;html=1;align=center;rounded=0;" parent="1" vertex="1">
          <mxGeometry x="-4" y="212" width="80" height="25" as="geometry" />
        </mxCell>
        <mxCell id="1Q4ybMo_WvViaDkqTn1m-22" value="Percentage" style="ellipse;whiteSpace=wrap;html=1;align=center;rounded=0;" parent="1" vertex="1">
          <mxGeometry x="-465" y="61" width="80" height="25" as="geometry" />
        </mxCell>
        <mxCell id="1Q4ybMo_WvViaDkqTn1m-23" value="" style="endArrow=none;html=1;rounded=0;exitX=0.5;exitY=1;exitDx=0;exitDy=0;entryX=0.5;entryY=0;entryDx=0;entryDy=0;" parent="1" source="1Q4ybMo_WvViaDkqTn1m-22" target="1Q4ybMo_WvViaDkqTn1m-13" edge="1">
          <mxGeometry relative="1" as="geometry">
            <mxPoint x="-95" y="340" as="sourcePoint" />
            <mxPoint x="-47" y="365" as="targetPoint" />
          </mxGeometry>
        </mxCell>
        <mxCell id="1Q4ybMo_WvViaDkqTn1m-32" value="" style="fontSize=12;html=1;endArrow=ERoneToMany;rounded=0;exitX=0.5;exitY=1;exitDx=0;exitDy=0;entryX=0.5;entryY=0;entryDx=0;entryDy=0;edgeStyle=orthogonalEdgeStyle;" parent="1" source="1Q4ybMo_WvViaDkqTn1m-37" target="1Q4ybMo_WvViaDkqTn1m-38" edge="1">
          <mxGeometry width="100" height="100" relative="1" as="geometry">
            <mxPoint x="345" y="973.3333333333334" as="sourcePoint" />
            <mxPoint x="345" y="730" as="targetPoint" />
          </mxGeometry>
        </mxCell>
        <mxCell id="1Q4ybMo_WvViaDkqTn1m-34" value="" style="fontSize=12;html=1;endArrow=ERoneToMany;rounded=0;entryX=0.5;entryY=1;entryDx=0;entryDy=0;exitX=0.5;exitY=0;exitDx=0;exitDy=0;" parent="1" source="pRzVGngoA3gTcLtupPJn-24" target="pRzVGngoA3gTcLtupPJn-2" edge="1">
          <mxGeometry width="100" height="100" relative="1" as="geometry">
            <mxPoint x="345" y="350" as="sourcePoint" />
            <mxPoint x="335" y="290" as="targetPoint" />
          </mxGeometry>
        </mxCell>
        <mxCell id="1Q4ybMo_WvViaDkqTn1m-37" value="Create" style="shape=rhombus;perimeter=rhombusPerimeter;whiteSpace=wrap;html=1;align=center;rounded=0;" parent="1" vertex="1">
          <mxGeometry x="353" y="600" width="70" height="60" as="geometry" />
        </mxCell>
        <mxCell id="1Q4ybMo_WvViaDkqTn1m-38" value="&lt;div&gt;Task&lt;/div&gt;" style="whiteSpace=wrap;html=1;align=center;rounded=0;" parent="1" vertex="1">
          <mxGeometry x="428" y="745" width="80" height="30" as="geometry" />
        </mxCell>
        <mxCell id="1Q4ybMo_WvViaDkqTn1m-40" value="" style="fontSize=12;html=1;endArrow=ERoneToMany;rounded=0;exitX=1;exitY=0.5;exitDx=0;exitDy=0;entryX=0.25;entryY=0;entryDx=0;entryDy=0;edgeStyle=orthogonalEdgeStyle;" parent="1" source="1Q4ybMo_WvViaDkqTn1m-42" edge="1">
          <mxGeometry width="100" height="100" relative="1" as="geometry">
            <mxPoint x="-178" y="773" as="sourcePoint" />
            <mxPoint x="432" y="910" as="targetPoint" />
          </mxGeometry>
        </mxCell>
        <mxCell id="1Q4ybMo_WvViaDkqTn1m-42" value="has Result" style="shape=rhombus;perimeter=rhombusPerimeter;whiteSpace=wrap;html=1;align=center;rounded=0;" parent="1" vertex="1">
          <mxGeometry x="-151.5" y="756" width="65" height="60" as="geometry" />
        </mxCell>
        <mxCell id="1Q4ybMo_WvViaDkqTn1m-46" value="S ID" style="ellipse;whiteSpace=wrap;html=1;align=center;fontStyle=4;rounded=0;" parent="1" vertex="1">
          <mxGeometry x="-300" y="490" width="80" height="30" as="geometry" />
        </mxCell>
        <mxCell id="1Q4ybMo_WvViaDkqTn1m-47" value="SName" style="ellipse;whiteSpace=wrap;html=1;align=center;rounded=0;" parent="1" vertex="1">
          <mxGeometry x="-371" y="524" width="103" height="20" as="geometry" />
        </mxCell>
        <mxCell id="1Q4ybMo_WvViaDkqTn1m-50" value="" style="endArrow=none;html=1;rounded=0;entryX=1;entryY=0.5;entryDx=0;entryDy=0;exitX=0.25;exitY=0;exitDx=0;exitDy=0;" parent="1" source="pRzVGngoA3gTcLtupPJn-59" target="1Q4ybMo_WvViaDkqTn1m-46" edge="1">
          <mxGeometry relative="1" as="geometry">
            <mxPoint x="-185" y="460" as="sourcePoint" />
            <mxPoint x="395" y="275" as="targetPoint" />
          </mxGeometry>
        </mxCell>
        <mxCell id="1Q4ybMo_WvViaDkqTn1m-51" value="" style="endArrow=none;html=1;rounded=0;exitX=0;exitY=0.5;exitDx=0;exitDy=0;entryX=1;entryY=0.5;entryDx=0;entryDy=0;" parent="1" source="pRzVGngoA3gTcLtupPJn-59" target="1Q4ybMo_WvViaDkqTn1m-47" edge="1">
          <mxGeometry relative="1" as="geometry">
            <mxPoint x="465" y="230" as="sourcePoint" />
            <mxPoint x="405" y="285" as="targetPoint" />
          </mxGeometry>
        </mxCell>
        <mxCell id="1Q4ybMo_WvViaDkqTn1m-52" value="C ID" style="ellipse;whiteSpace=wrap;html=1;align=center;fontStyle=4;rounded=0;" parent="1" vertex="1">
          <mxGeometry x="-400" y="355.5" width="80" height="30" as="geometry" />
        </mxCell>
        <mxCell id="1Q4ybMo_WvViaDkqTn1m-53" value="description" style="ellipse;whiteSpace=wrap;html=1;align=center;rounded=0;" parent="1" vertex="1">
          <mxGeometry x="-512" y="350" width="100" height="30.5" as="geometry" />
        </mxCell>
        <mxCell id="1Q4ybMo_WvViaDkqTn1m-54" value="" style="endArrow=none;html=1;rounded=0;entryX=0.59;entryY=0.987;entryDx=0;entryDy=0;entryPerimeter=0;exitX=0.098;exitY=-0.025;exitDx=0;exitDy=0;exitPerimeter=0;" parent="1" target="1Q4ybMo_WvViaDkqTn1m-53" edge="1" source="pRzVGngoA3gTcLtupPJn-75">
          <mxGeometry relative="1" as="geometry">
            <mxPoint x="-430" y="398" as="sourcePoint" />
            <mxPoint x="-365" y="505" as="targetPoint" />
          </mxGeometry>
        </mxCell>
        <mxCell id="1Q4ybMo_WvViaDkqTn1m-55" value="" style="endArrow=none;html=1;rounded=0;entryX=0.663;entryY=0.989;entryDx=0;entryDy=0;entryPerimeter=0;exitX=0.75;exitY=0;exitDx=0;exitDy=0;" parent="1" source="pRzVGngoA3gTcLtupPJn-75" target="1Q4ybMo_WvViaDkqTn1m-52" edge="1">
          <mxGeometry relative="1" as="geometry">
            <mxPoint x="-425" y="420" as="sourcePoint" />
            <mxPoint x="-355" y="515" as="targetPoint" />
          </mxGeometry>
        </mxCell>
        <mxCell id="1Q4ybMo_WvViaDkqTn1m-56" value="map on" style="shape=rhombus;perimeter=rhombusPerimeter;whiteSpace=wrap;html=1;align=center;rounded=0;" parent="1" vertex="1">
          <mxGeometry x="-407" y="814" width="70" height="60" as="geometry" />
        </mxCell>
        <mxCell id="1Q4ybMo_WvViaDkqTn1m-58" value="" style="fontSize=12;html=1;endArrow=ERoneToMany;rounded=0;exitX=0.5;exitY=0;exitDx=0;exitDy=0;entryX=0.63;entryY=1.078;entryDx=0;entryDy=0;entryPerimeter=0;edgeStyle=orthogonalEdgeStyle;" parent="1" source="1Q4ybMo_WvViaDkqTn1m-56" target="pRzVGngoA3gTcLtupPJn-75" edge="1">
          <mxGeometry width="100" height="100" relative="1" as="geometry">
            <mxPoint x="-215" y="630" as="sourcePoint" />
            <mxPoint x="-385" y="450" as="targetPoint" />
          </mxGeometry>
        </mxCell>
        <mxCell id="1Q4ybMo_WvViaDkqTn1m-59" value="" style="fontSize=12;html=1;endArrow=ERoneToMany;rounded=0;exitX=0.891;exitY=0.477;exitDx=0;exitDy=0;entryX=0;entryY=0;entryDx=0;entryDy=0;exitPerimeter=0;edgeStyle=orthogonalEdgeStyle;" parent="1" source="1Q4ybMo_WvViaDkqTn1m-56" edge="1">
          <mxGeometry width="100" height="100" relative="1" as="geometry">
            <mxPoint x="-342" y="846" as="sourcePoint" />
            <mxPoint x="425" y="910" as="targetPoint" />
          </mxGeometry>
        </mxCell>
        <mxCell id="1Q4ybMo_WvViaDkqTn1m-60" value="Percentage" style="ellipse;whiteSpace=wrap;html=1;align=center;rounded=0;" parent="1" vertex="1">
          <mxGeometry x="-355" y="774" width="80" height="25" as="geometry" />
        </mxCell>
        <mxCell id="1Q4ybMo_WvViaDkqTn1m-61" value="" style="endArrow=none;html=1;rounded=0;entryX=0.325;entryY=0.947;entryDx=0;entryDy=0;exitX=1;exitY=0;exitDx=0;exitDy=0;entryPerimeter=0;" parent="1" source="1Q4ybMo_WvViaDkqTn1m-56" target="1Q4ybMo_WvViaDkqTn1m-60" edge="1">
          <mxGeometry relative="1" as="geometry">
            <mxPoint x="-415" y="435" as="sourcePoint" />
            <mxPoint x="-465" y="438" as="targetPoint" />
          </mxGeometry>
        </mxCell>
        <mxCell id="1Q4ybMo_WvViaDkqTn1m-62" value="Has" style="shape=rhombus;perimeter=rhombusPerimeter;whiteSpace=wrap;html=1;align=center;rounded=0;" parent="1" vertex="1">
          <mxGeometry x="436" y="828" width="60" height="20" as="geometry" />
        </mxCell>
        <mxCell id="1Q4ybMo_WvViaDkqTn1m-64" value="&amp;nbsp;Question" style="whiteSpace=wrap;html=1;align=center;rounded=0;" parent="1" vertex="1">
          <mxGeometry x="425" y="908" width="80" height="30" as="geometry" />
        </mxCell>
        <mxCell id="1Q4ybMo_WvViaDkqTn1m-65" value="" style="fontSize=12;html=1;endArrow=ERoneToMany;rounded=0;exitX=0.5;exitY=1;exitDx=0;exitDy=0;entryX=0.5;entryY=0;entryDx=0;entryDy=0;edgeStyle=orthogonalEdgeStyle;" parent="1" source="1Q4ybMo_WvViaDkqTn1m-62" target="1Q4ybMo_WvViaDkqTn1m-64" edge="1">
          <mxGeometry width="100" height="100" relative="1" as="geometry">
            <mxPoint x="335" y="620" as="sourcePoint" />
            <mxPoint x="335" y="650" as="targetPoint" />
          </mxGeometry>
        </mxCell>
        <mxCell id="1Q4ybMo_WvViaDkqTn1m-66" value="Tq_id" style="ellipse;whiteSpace=wrap;html=1;align=center;fontStyle=4;rounded=0;" parent="1" vertex="1">
          <mxGeometry x="239" y="980" width="80" height="30" as="geometry" />
        </mxCell>
        <mxCell id="1Q4ybMo_WvViaDkqTn1m-67" value="" style="endArrow=none;html=1;rounded=0;entryX=0.5;entryY=0;entryDx=0;entryDy=0;exitX=0.154;exitY=0.9;exitDx=0;exitDy=0;exitPerimeter=0;" parent="1" source="1Q4ybMo_WvViaDkqTn1m-64" target="1Q4ybMo_WvViaDkqTn1m-66" edge="1">
          <mxGeometry relative="1" as="geometry">
            <mxPoint x="365" y="780" as="sourcePoint" />
            <mxPoint x="-270" y="561" as="targetPoint" />
          </mxGeometry>
        </mxCell>
        <mxCell id="1Q4ybMo_WvViaDkqTn1m-68" value="question" style="ellipse;whiteSpace=wrap;html=1;align=center;rounded=0;" parent="1" vertex="1">
          <mxGeometry x="324" y="974" width="80" height="25" as="geometry" />
        </mxCell>
        <mxCell id="1Q4ybMo_WvViaDkqTn1m-69" value="" style="endArrow=none;html=1;rounded=0;exitX=0.5;exitY=1;exitDx=0;exitDy=0;entryX=0.5;entryY=0;entryDx=0;entryDy=0;" parent="1" source="1Q4ybMo_WvViaDkqTn1m-64" target="1Q4ybMo_WvViaDkqTn1m-68" edge="1">
          <mxGeometry relative="1" as="geometry">
            <mxPoint x="-255" y="520" as="sourcePoint" />
            <mxPoint x="415" y="850" as="targetPoint" />
          </mxGeometry>
        </mxCell>
        <mxCell id="1Q4ybMo_WvViaDkqTn1m-74" value="" style="endArrow=none;html=1;rounded=0;entryX=0.75;entryY=0;entryDx=0;entryDy=0;exitX=0.5;exitY=1;exitDx=0;exitDy=0;" parent="1" source="KNpMdHazN3kEhuRX8JPj-5" target="1Q4ybMo_WvViaDkqTn1m-38" edge="1">
          <mxGeometry relative="1" as="geometry">
            <mxPoint x="448.32000000000016" y="650.1600000000001" as="sourcePoint" />
            <mxPoint x="375" y="860" as="targetPoint" />
          </mxGeometry>
        </mxCell>
        <mxCell id="1Q4ybMo_WvViaDkqTn1m-85" value="Has" style="shape=rhombus;perimeter=rhombusPerimeter;whiteSpace=wrap;html=1;align=center;rounded=0;" parent="1" vertex="1">
          <mxGeometry x="-275" y="912" width="60" height="20" as="geometry" />
        </mxCell>
        <mxCell id="1Q4ybMo_WvViaDkqTn1m-86" value="" style="fontSize=12;html=1;endArrow=ERoneToMany;rounded=0;entryX=0;entryY=0.5;entryDx=0;entryDy=0;exitX=1;exitY=0.5;exitDx=0;exitDy=0;edgeStyle=orthogonalEdgeStyle;" parent="1" source="1Q4ybMo_WvViaDkqTn1m-85" target="1Q4ybMo_WvViaDkqTn1m-64" edge="1">
          <mxGeometry width="100" height="100" relative="1" as="geometry">
            <mxPoint x="-180" y="666" as="sourcePoint" />
            <mxPoint x="295" y="665" as="targetPoint" />
          </mxGeometry>
        </mxCell>
        <mxCell id="1Q4ybMo_WvViaDkqTn1m-87" value="" style="fontSize=12;html=1;endArrow=ERoneToMany;rounded=0;exitX=0;exitY=0.5;exitDx=0;exitDy=0;edgeStyle=orthogonalEdgeStyle;" parent="1" source="1Q4ybMo_WvViaDkqTn1m-85" target="pRzVGngoA3gTcLtupPJn-75" edge="1">
          <mxGeometry width="100" height="100" relative="1" as="geometry">
            <mxPoint x="-285" y="878" as="sourcePoint" />
            <mxPoint x="-410" y="430" as="targetPoint" />
            <Array as="points">
              <mxPoint x="-410" y="922" />
            </Array>
          </mxGeometry>
        </mxCell>
        <mxCell id="1Q4ybMo_WvViaDkqTn1m-89" value="password" style="ellipse;whiteSpace=wrap;html=1;align=center;rounded=0;" parent="1" vertex="1">
          <mxGeometry x="-350" y="562.5" width="80" height="25" as="geometry" />
        </mxCell>
        <mxCell id="1Q4ybMo_WvViaDkqTn1m-90" value="" style="endArrow=none;html=1;rounded=0;entryX=1;entryY=0;entryDx=0;entryDy=0;" parent="1" source="pRzVGngoA3gTcLtupPJn-59" target="1Q4ybMo_WvViaDkqTn1m-89" edge="1">
          <mxGeometry relative="1" as="geometry">
            <mxPoint x="-225" y="520" as="sourcePoint" />
            <mxPoint x="-255" y="508" as="targetPoint" />
          </mxGeometry>
        </mxCell>
        <mxCell id="1Q4ybMo_WvViaDkqTn1m-91" value="password" style="ellipse;whiteSpace=wrap;html=1;align=center;rounded=0;" parent="1" vertex="1">
          <mxGeometry x="420" y="492" width="80" height="25" as="geometry" />
        </mxCell>
        <mxCell id="1Q4ybMo_WvViaDkqTn1m-92" value="" style="endArrow=none;html=1;rounded=0;exitX=0.5;exitY=1;exitDx=0;exitDy=0;entryX=0.5;entryY=0;entryDx=0;entryDy=0;" parent="1" source="1Q4ybMo_WvViaDkqTn1m-91" target="pRzVGngoA3gTcLtupPJn-63" edge="1">
          <mxGeometry relative="1" as="geometry">
            <mxPoint x="425" y="450" as="sourcePoint" />
            <mxPoint x="366" y="493" as="targetPoint" />
          </mxGeometry>
        </mxCell>
        <mxCell id="1Q4ybMo_WvViaDkqTn1m-93" value="H ID" style="ellipse;whiteSpace=wrap;html=1;align=center;fontStyle=4;rounded=0;" parent="1" vertex="1">
          <mxGeometry x="-80" y="40" width="80" height="30" as="geometry" />
        </mxCell>
        <mxCell id="1Q4ybMo_WvViaDkqTn1m-94" value="password" style="ellipse;whiteSpace=wrap;html=1;align=center;rounded=0;" parent="1" vertex="1">
          <mxGeometry x="102" y="47" width="80" height="25" as="geometry" />
        </mxCell>
        <mxCell id="1Q4ybMo_WvViaDkqTn1m-95" value="Name" style="ellipse;whiteSpace=wrap;html=1;align=center;rounded=0;" parent="1" vertex="1">
          <mxGeometry x="14" y="31" width="80" height="25" as="geometry" />
        </mxCell>
        <mxCell id="1Q4ybMo_WvViaDkqTn1m-97" value="" style="endArrow=none;html=1;rounded=0;exitX=0.5;exitY=1;exitDx=0;exitDy=0;entryX=0.25;entryY=0;entryDx=0;entryDy=0;" parent="1" source="1Q4ybMo_WvViaDkqTn1m-93" target="pRzVGngoA3gTcLtupPJn-10" edge="1">
          <mxGeometry relative="1" as="geometry">
            <mxPoint x="435" y="200" as="sourcePoint" />
            <mxPoint x="375" y="255" as="targetPoint" />
          </mxGeometry>
        </mxCell>
        <mxCell id="1Q4ybMo_WvViaDkqTn1m-98" value="" style="endArrow=none;html=1;rounded=0;exitX=0.404;exitY=0.947;exitDx=0;exitDy=0;exitPerimeter=0;entryX=0.404;entryY=0.067;entryDx=0;entryDy=0;entryPerimeter=0;" parent="1" source="1Q4ybMo_WvViaDkqTn1m-95" target="pRzVGngoA3gTcLtupPJn-10" edge="1">
          <mxGeometry relative="1" as="geometry">
            <mxPoint x="75" y="60" as="sourcePoint" />
            <mxPoint x="125" y="110" as="targetPoint" />
          </mxGeometry>
        </mxCell>
        <mxCell id="1Q4ybMo_WvViaDkqTn1m-99" value="" style="endArrow=none;html=1;rounded=0;exitX=0;exitY=1;exitDx=0;exitDy=0;entryX=0.5;entryY=0;entryDx=0;entryDy=0;" parent="1" source="1Q4ybMo_WvViaDkqTn1m-94" target="pRzVGngoA3gTcLtupPJn-10" edge="1">
          <mxGeometry relative="1" as="geometry">
            <mxPoint x="157" y="54" as="sourcePoint" />
            <mxPoint x="145" y="110" as="targetPoint" />
          </mxGeometry>
        </mxCell>
        <mxCell id="1Q4ybMo_WvViaDkqTn1m-100" value="T&amp;nbsp;&lt;span style=&quot;background-color: initial;&quot;&gt;marks&lt;/span&gt;" style="ellipse;whiteSpace=wrap;html=1;align=center;rounded=0;rotation=-15;" parent="1" vertex="1">
          <mxGeometry x="531" y="714.5" width="80" height="25" as="geometry" />
        </mxCell>
        <mxCell id="1Q4ybMo_WvViaDkqTn1m-101" value="" style="endArrow=none;html=1;rounded=0;exitX=0;exitY=0.5;exitDx=0;exitDy=0;" parent="1" source="1Q4ybMo_WvViaDkqTn1m-100" target="1Q4ybMo_WvViaDkqTn1m-38" edge="1">
          <mxGeometry relative="1" as="geometry">
            <mxPoint x="466" y="632" as="sourcePoint" />
            <mxPoint x="375" y="650" as="targetPoint" />
          </mxGeometry>
        </mxCell>
        <mxCell id="lFU9lBgxOi-jTrkBJJmm-3" value="pre_requisiite" style="shape=rhombus;perimeter=rhombusPerimeter;whiteSpace=wrap;html=1;align=center;rounded=0;" parent="1" vertex="1">
          <mxGeometry x="182" y="295.5" width="90" height="60" as="geometry" />
        </mxCell>
        <mxCell id="lFU9lBgxOi-jTrkBJJmm-8" value="" style="fontSize=12;html=1;endArrow=ERoneToMany;rounded=0;exitX=0.5;exitY=0;exitDx=0;exitDy=0;entryX=1;entryY=0.75;entryDx=0;entryDy=0;edgeStyle=orthogonalEdgeStyle;" parent="1" source="lFU9lBgxOi-jTrkBJJmm-3" target="pRzVGngoA3gTcLtupPJn-22" edge="1">
          <mxGeometry width="100" height="100" relative="1" as="geometry">
            <mxPoint x="325" y="355" as="sourcePoint" />
            <mxPoint x="220" y="360" as="targetPoint" />
          </mxGeometry>
        </mxCell>
        <mxCell id="lFU9lBgxOi-jTrkBJJmm-32" value="Add" style="shape=rhombus;perimeter=rhombusPerimeter;whiteSpace=wrap;html=1;align=center;rounded=0;" parent="1" vertex="1">
          <mxGeometry x="135" y="469" width="60" height="20" as="geometry" />
        </mxCell>
        <mxCell id="lFU9lBgxOi-jTrkBJJmm-34" value="" style="fontSize=12;html=1;endArrow=ERoneToMany;rounded=0;exitX=0;exitY=0.5;exitDx=0;exitDy=0;" parent="1" source="lFU9lBgxOi-jTrkBJJmm-32" edge="1">
          <mxGeometry width="100" height="100" relative="1" as="geometry">
            <mxPoint x="-56" y="441" as="sourcePoint" />
            <mxPoint x="-368" y="430" as="targetPoint" />
            <Array as="points">
              <mxPoint x="75" y="480" />
              <mxPoint x="-370" y="480" />
            </Array>
          </mxGeometry>
        </mxCell>
        <mxCell id="lFU9lBgxOi-jTrkBJJmm-41" value="" style="endArrow=none;html=1;rounded=0;exitX=0.375;exitY=0.733;exitDx=0;exitDy=0;exitPerimeter=0;entryX=0.75;entryY=0;entryDx=0;entryDy=0;" parent="1" source="KNpMdHazN3kEhuRX8JPj-13" target="pRzVGngoA3gTcLtupPJn-22" edge="1">
          <mxGeometry relative="1" as="geometry">
            <mxPoint x="175" y="301.9899999999999" as="sourcePoint" />
            <mxPoint x="125" y="330" as="targetPoint" />
          </mxGeometry>
        </mxCell>
        <mxCell id="jIO5Y5OPjqzJtC8mCw47-1" value="" style="edgeStyle=entityRelationEdgeStyle;fontSize=12;html=1;endArrow=ERmandOne;rounded=0;startSize=8;endSize=8;curved=1;entryX=1;entryY=0.5;entryDx=0;entryDy=0;exitX=0;exitY=0.5;exitDx=0;exitDy=0;" parent="1" source="pRzVGngoA3gTcLtupPJn-11" target="pRzVGngoA3gTcLtupPJn-10" edge="1">
          <mxGeometry width="100" height="100" relative="1" as="geometry">
            <mxPoint x="-5" y="240" as="sourcePoint" />
            <mxPoint x="95" y="140" as="targetPoint" />
          </mxGeometry>
        </mxCell>
        <mxCell id="jIO5Y5OPjqzJtC8mCw47-3" value="" style="edgeStyle=orthogonalEdgeStyle;fontSize=12;html=1;endArrow=ERzeroToMany;endFill=1;rounded=0;startSize=8;endSize=8;entryX=0.75;entryY=1;entryDx=0;entryDy=0;exitX=0;exitY=0.5;exitDx=0;exitDy=0;" parent="1" source="lFU9lBgxOi-jTrkBJJmm-3" target="pRzVGngoA3gTcLtupPJn-22" edge="1">
          <mxGeometry width="100" height="100" relative="1" as="geometry">
            <mxPoint x="-45" y="540" as="sourcePoint" />
            <mxPoint x="55" y="440" as="targetPoint" />
          </mxGeometry>
        </mxCell>
        <mxCell id="jIO5Y5OPjqzJtC8mCw47-13" value="" style="edgeStyle=orthogonalEdgeStyle;fontSize=12;html=1;endArrow=ERmandOne;rounded=0;startSize=8;endSize=8;exitX=1;exitY=0.5;exitDx=0;exitDy=0;entryX=0.25;entryY=0;entryDx=0;entryDy=0;" parent="1" source="lFU9lBgxOi-jTrkBJJmm-32" target="pRzVGngoA3gTcLtupPJn-63" edge="1">
          <mxGeometry width="100" height="100" relative="1" as="geometry">
            <mxPoint x="295" y="140" as="sourcePoint" />
            <mxPoint x="380" y="530" as="targetPoint" />
          </mxGeometry>
        </mxCell>
        <mxCell id="O8k3LPcygmIZkrJasKmk-1" value="" style="fontSize=12;html=1;endArrow=ERoneToMany;rounded=0;exitX=0.5;exitY=0;exitDx=0;exitDy=0;entryX=0.75;entryY=1;entryDx=0;entryDy=0;edgeStyle=orthogonalEdgeStyle;" parent="1" source="1Q4ybMo_WvViaDkqTn1m-42" target="pRzVGngoA3gTcLtupPJn-59" edge="1">
          <mxGeometry width="100" height="100" relative="1" as="geometry">
            <mxPoint x="-135" y="600" as="sourcePoint" />
            <mxPoint x="-197" y="565" as="targetPoint" />
          </mxGeometry>
        </mxCell>
        <mxCell id="224Rd8baaD4bm7rIzMbj-3" value="ACTIVITIES" style="whiteSpace=wrap;html=1;align=center;rounded=0;" parent="1" vertex="1">
          <mxGeometry x="-558" y="650" width="80" height="30" as="geometry" />
        </mxCell>
        <mxCell id="224Rd8baaD4bm7rIzMbj-5" value="" style="fontSize=12;html=1;endArrow=ERoneToMany;rounded=0;exitX=0;exitY=1;exitDx=0;exitDy=0;" parent="1" source="224Rd8baaD4bm7rIzMbj-6" target="224Rd8baaD4bm7rIzMbj-3" edge="1">
          <mxGeometry width="100" height="100" relative="1" as="geometry">
            <mxPoint x="-542" y="594" as="sourcePoint" />
            <mxPoint x="-571" y="544" as="targetPoint" />
            <Array as="points" />
          </mxGeometry>
        </mxCell>
        <mxCell id="224Rd8baaD4bm7rIzMbj-6" value="map on" style="shape=rhombus;perimeter=rhombusPerimeter;whiteSpace=wrap;html=1;align=center;rounded=0;" parent="1" vertex="1">
          <mxGeometry x="-533" y="475" width="70" height="60" as="geometry" />
        </mxCell>
        <mxCell id="224Rd8baaD4bm7rIzMbj-7" value="Percentage" style="ellipse;whiteSpace=wrap;html=1;align=center;rounded=0;" parent="1" vertex="1">
          <mxGeometry x="-606" y="450" width="80" height="25" as="geometry" />
        </mxCell>
        <mxCell id="224Rd8baaD4bm7rIzMbj-8" value="" style="endArrow=none;html=1;rounded=0;entryX=0.65;entryY=1;entryDx=0;entryDy=0;exitX=0;exitY=0.5;exitDx=0;exitDy=0;entryPerimeter=0;fontStyle=1" parent="1" source="224Rd8baaD4bm7rIzMbj-6" target="224Rd8baaD4bm7rIzMbj-7" edge="1">
          <mxGeometry relative="1" as="geometry">
            <mxPoint x="-352" y="725" as="sourcePoint" />
            <mxPoint x="-324" y="719" as="targetPoint" />
          </mxGeometry>
        </mxCell>
        <mxCell id="224Rd8baaD4bm7rIzMbj-9" value="" style="fontSize=12;html=1;endArrow=ERoneToMany;rounded=0;exitX=0.5;exitY=0;exitDx=0;exitDy=0;entryX=0;entryY=0.5;entryDx=0;entryDy=0;edgeStyle=orthogonalEdgeStyle;" parent="1" source="224Rd8baaD4bm7rIzMbj-6" target="pRzVGngoA3gTcLtupPJn-75" edge="1">
          <mxGeometry width="100" height="100" relative="1" as="geometry">
            <mxPoint x="-370" y="710" as="sourcePoint" />
            <mxPoint x="-372" y="446" as="targetPoint" />
          </mxGeometry>
        </mxCell>
        <mxCell id="224Rd8baaD4bm7rIzMbj-13" value="&lt;u&gt;Section&lt;/u&gt;" style="ellipse;whiteSpace=wrap;html=1;align=center;rounded=0;" parent="1" vertex="1">
          <mxGeometry x="-16.5" y="514" width="77.5" height="21" as="geometry" />
        </mxCell>
        <mxCell id="224Rd8baaD4bm7rIzMbj-14" value="" style="endArrow=none;html=1;rounded=0;exitX=0.5;exitY=1;exitDx=0;exitDy=0;entryX=0.25;entryY=0;entryDx=0;entryDy=0;" parent="1" source="224Rd8baaD4bm7rIzMbj-13" target="pRzVGngoA3gTcLtupPJn-53" edge="1">
          <mxGeometry relative="1" as="geometry">
            <mxPoint x="27" y="610" as="sourcePoint" />
            <mxPoint x="78" y="565" as="targetPoint" />
          </mxGeometry>
        </mxCell>
        <mxCell id="224Rd8baaD4bm7rIzMbj-21" value="Has" style="shape=rhombus;perimeter=rhombusPerimeter;whiteSpace=wrap;html=1;align=center;rounded=0;" parent="1" vertex="1">
          <mxGeometry x="55" y="662" width="60" height="20" as="geometry" />
        </mxCell>
        <mxCell id="224Rd8baaD4bm7rIzMbj-24" value="" style="fontSize=12;html=1;endArrow=ERoneToMany;rounded=0;exitX=1;exitY=0.5;exitDx=0;exitDy=0;entryX=0.337;entryY=0;entryDx=0;entryDy=0;entryPerimeter=0;edgeStyle=orthogonalEdgeStyle;" parent="1" source="224Rd8baaD4bm7rIzMbj-21" target="1Q4ybMo_WvViaDkqTn1m-38" edge="1">
          <mxGeometry width="100" height="100" relative="1" as="geometry">
            <mxPoint x="115" y="676" as="sourcePoint" />
            <mxPoint x="353" y="742" as="targetPoint" />
          </mxGeometry>
        </mxCell>
        <mxCell id="224Rd8baaD4bm7rIzMbj-25" value="TypeId" style="ellipse;whiteSpace=wrap;html=1;align=center;fontStyle=4;rounded=0;" parent="1" vertex="1">
          <mxGeometry x="-620" y="712" width="80" height="30" as="geometry" />
        </mxCell>
        <mxCell id="224Rd8baaD4bm7rIzMbj-26" value="" style="endArrow=none;html=1;rounded=0;entryX=0.679;entryY=0.089;entryDx=0;entryDy=0;exitX=0.25;exitY=1;exitDx=0;exitDy=0;entryPerimeter=0;" parent="1" source="224Rd8baaD4bm7rIzMbj-3" target="224Rd8baaD4bm7rIzMbj-25" edge="1">
          <mxGeometry relative="1" as="geometry">
            <mxPoint x="-523" y="515" as="sourcePoint" />
            <mxPoint x="-544" y="485" as="targetPoint" />
          </mxGeometry>
        </mxCell>
        <mxCell id="224Rd8baaD4bm7rIzMbj-33" value="permission" style="ellipse;shape=doubleEllipse;margin=3;whiteSpace=wrap;html=1;align=center;" parent="1" vertex="1">
          <mxGeometry x="397" y="579" width="115" height="40" as="geometry" />
        </mxCell>
        <mxCell id="224Rd8baaD4bm7rIzMbj-36" value="" style="endArrow=none;html=1;rounded=0;exitX=0;exitY=0.5;exitDx=0;exitDy=0;entryX=0.75;entryY=1;entryDx=0;entryDy=0;" parent="1" source="224Rd8baaD4bm7rIzMbj-33" target="pRzVGngoA3gTcLtupPJn-63" edge="1">
          <mxGeometry relative="1" as="geometry">
            <mxPoint x="415" y="455" as="sourcePoint" />
            <mxPoint x="437" y="539" as="targetPoint" />
          </mxGeometry>
        </mxCell>
        <mxCell id="KNpMdHazN3kEhuRX8JPj-2" value="" style="fontSize=12;html=1;endArrow=ERmandOne;rounded=0;startSize=8;endSize=8;exitX=0;exitY=0.5;exitDx=0;exitDy=0;entryX=1;entryY=0.75;entryDx=0;entryDy=0;edgeStyle=orthogonalEdgeStyle;" parent="1" source="224Rd8baaD4bm7rIzMbj-21" target="224Rd8baaD4bm7rIzMbj-3" edge="1">
          <mxGeometry width="100" height="100" relative="1" as="geometry">
            <mxPoint x="205" y="489" as="sourcePoint" />
            <mxPoint x="-391" y="696" as="targetPoint" />
          </mxGeometry>
        </mxCell>
        <mxCell id="KNpMdHazN3kEhuRX8JPj-3" value="tsk_id" style="ellipse;whiteSpace=wrap;html=1;align=center;fontStyle=4;rounded=0;" parent="1" vertex="1">
          <mxGeometry x="540" y="749" width="80" height="30" as="geometry" />
        </mxCell>
        <mxCell id="KNpMdHazN3kEhuRX8JPj-4" value="" style="endArrow=none;html=1;rounded=0;entryX=1;entryY=0.5;entryDx=0;entryDy=0;exitX=0.046;exitY=0.189;exitDx=0;exitDy=0;exitPerimeter=0;" parent="1" source="KNpMdHazN3kEhuRX8JPj-3" target="1Q4ybMo_WvViaDkqTn1m-38" edge="1">
          <mxGeometry relative="1" as="geometry">
            <mxPoint x="458" y="660" as="sourcePoint" />
            <mxPoint x="403" y="752" as="targetPoint" />
          </mxGeometry>
        </mxCell>
        <mxCell id="KNpMdHazN3kEhuRX8JPj-5" value="Task_id" style="ellipse;whiteSpace=wrap;html=1;align=center;rounded=0;" parent="1" vertex="1">
          <mxGeometry x="460" y="662" width="80" height="25" as="geometry" />
        </mxCell>
        <mxCell id="KNpMdHazN3kEhuRX8JPj-7" value="qno" style="ellipse;whiteSpace=wrap;html=1;align=center;rounded=0;" parent="1" vertex="1">
          <mxGeometry x="391" y="1021" width="80" height="25" as="geometry" />
        </mxCell>
        <mxCell id="KNpMdHazN3kEhuRX8JPj-8" value="" style="endArrow=none;html=1;rounded=0;entryX=0.5;entryY=0;entryDx=0;entryDy=0;" parent="1" source="1Q4ybMo_WvViaDkqTn1m-64" target="KNpMdHazN3kEhuRX8JPj-7" edge="1">
          <mxGeometry relative="1" as="geometry">
            <mxPoint x="415" y="962" as="sourcePoint" />
            <mxPoint x="374" y="984" as="targetPoint" />
          </mxGeometry>
        </mxCell>
        <mxCell id="KNpMdHazN3kEhuRX8JPj-12" value="" style="fontSize=12;html=1;endArrow=ERmandOne;rounded=0;exitX=0.5;exitY=0;exitDx=0;exitDy=0;entryX=0.5;entryY=1;entryDx=0;entryDy=0;" parent="1" source="1Q4ybMo_WvViaDkqTn1m-62" target="1Q4ybMo_WvViaDkqTn1m-38" edge="1">
          <mxGeometry width="100" height="100" relative="1" as="geometry">
            <mxPoint x="433" y="828" as="sourcePoint" />
            <mxPoint x="470" y="780" as="targetPoint" />
          </mxGeometry>
        </mxCell>
        <mxCell id="KNpMdHazN3kEhuRX8JPj-13" value="c_hours" style="ellipse;whiteSpace=wrap;html=1;align=center;rounded=0;" parent="1" vertex="1">
          <mxGeometry x="131" y="205" width="80" height="25" as="geometry" />
        </mxCell>
        <mxCell id="81AHrTAccOH7nmolwsL5-7" value="suggestion" style="ellipse;shape=doubleEllipse;margin=3;whiteSpace=wrap;html=1;align=center;" parent="1" vertex="1">
          <mxGeometry x="-558" y="92" width="100" height="40" as="geometry" />
        </mxCell>
        <mxCell id="81AHrTAccOH7nmolwsL5-9" value="" style="endArrow=none;html=1;rounded=0;entryX=0;entryY=0.5;entryDx=0;entryDy=0;exitX=0.613;exitY=0.903;exitDx=0;exitDy=0;exitPerimeter=0;" parent="1" source="81AHrTAccOH7nmolwsL5-7" target="1Q4ybMo_WvViaDkqTn1m-13" edge="1">
          <mxGeometry relative="1" as="geometry">
            <mxPoint x="-484" y="196" as="sourcePoint" />
            <mxPoint x="-421" y="273" as="targetPoint" />
          </mxGeometry>
        </mxCell>
        <mxCell id="S9Tbi7Xc062L7QSM5zsO-7" value="Semester" style="ellipse;whiteSpace=wrap;html=1;align=center;rounded=0;" parent="1" vertex="1">
          <mxGeometry x="-320" y="601" width="65" height="25" as="geometry" />
        </mxCell>
        <mxCell id="S9Tbi7Xc062L7QSM5zsO-11" value="" style="endArrow=none;html=1;rounded=0;exitX=0;exitY=0;exitDx=0;exitDy=0;entryX=0.25;entryY=1;entryDx=0;entryDy=0;" parent="1" source="S9Tbi7Xc062L7QSM5zsO-7" target="pRzVGngoA3gTcLtupPJn-59" edge="1">
          <mxGeometry relative="1" as="geometry">
            <mxPoint x="-79" y="590" as="sourcePoint" />
            <mxPoint x="-62" y="581" as="targetPoint" />
          </mxGeometry>
        </mxCell>
        <mxCell id="S9Tbi7Xc062L7QSM5zsO-13" style="edgeStyle=orthogonalEdgeStyle;rounded=0;orthogonalLoop=1;jettySize=auto;html=1;exitX=0.5;exitY=1;exitDx=0;exitDy=0;" parent="1" source="S9Tbi7Xc062L7QSM5zsO-7" target="S9Tbi7Xc062L7QSM5zsO-7" edge="1">
          <mxGeometry relative="1" as="geometry" />
        </mxCell>
        <mxCell id="VN8QXoMQ13UDXT6DOKEU-1" value="Semester" style="ellipse;whiteSpace=wrap;html=1;align=center;rounded=0;" parent="1" vertex="1">
          <mxGeometry x="-14" y="567.75" width="65" height="25" as="geometry" />
        </mxCell>
        <mxCell id="VN8QXoMQ13UDXT6DOKEU-3" value="" style="endArrow=none;html=1;rounded=0;exitX=0.5;exitY=0;exitDx=0;exitDy=0;entryX=0.121;entryY=0.889;entryDx=0;entryDy=0;entryPerimeter=0;" parent="1" source="VN8QXoMQ13UDXT6DOKEU-1" target="pRzVGngoA3gTcLtupPJn-53" edge="1">
          <mxGeometry relative="1" as="geometry">
            <mxPoint x="-227" y="560" as="sourcePoint" />
            <mxPoint x="-258" y="544" as="targetPoint" />
          </mxGeometry>
        </mxCell>
        <mxCell id="VAjnBqG-Ele6fG4m9UPx-3" value="section" style="ellipse;whiteSpace=wrap;html=1;align=center;rounded=0;" parent="1" vertex="1">
          <mxGeometry x="-234.5" y="438" width="77.5" height="21" as="geometry" />
        </mxCell>
        <mxCell id="VAjnBqG-Ele6fG4m9UPx-4" value="" style="endArrow=none;html=1;rounded=0;entryX=0.5;entryY=0;entryDx=0;entryDy=0;" parent="1" source="VAjnBqG-Ele6fG4m9UPx-3" target="pRzVGngoA3gTcLtupPJn-59" edge="1">
          <mxGeometry relative="1" as="geometry">
            <mxPoint x="41" y="530" as="sourcePoint" />
            <mxPoint x="85" y="545" as="targetPoint" />
          </mxGeometry>
        </mxCell>
        <mxCell id="VAjnBqG-Ele6fG4m9UPx-8" value="" style="endArrow=none;html=1;rounded=0;exitX=0;exitY=0;exitDx=0;exitDy=0;" parent="1" source="fV8LHWm-Pb_DjaEBI3IH-40" target="1Q4ybMo_WvViaDkqTn1m-38" edge="1">
          <mxGeometry relative="1" as="geometry">
            <mxPoint x="532.2200000000003" y="821.0999999999999" as="sourcePoint" />
            <mxPoint x="420" y="770" as="targetPoint" />
          </mxGeometry>
        </mxCell>
        <mxCell id="wF045Vvut8wKPDYFQStH-14" value="Typee" style="ellipse;whiteSpace=wrap;html=1;align=center;rounded=0;" parent="1" vertex="1">
          <mxGeometry x="-660" y="687" width="80" height="25" as="geometry" />
        </mxCell>
        <mxCell id="wF045Vvut8wKPDYFQStH-16" value="" style="endArrow=none;html=1;rounded=0;entryX=0;entryY=1;entryDx=0;entryDy=0;exitX=0.702;exitY=0.049;exitDx=0;exitDy=0;exitPerimeter=0;" parent="1" source="wF045Vvut8wKPDYFQStH-14" target="224Rd8baaD4bm7rIzMbj-3" edge="1">
          <mxGeometry relative="1" as="geometry">
            <mxPoint x="-520" y="762" as="sourcePoint" />
            <mxPoint x="-498" y="700" as="targetPoint" />
          </mxGeometry>
        </mxCell>
        <mxCell id="mGdPpXEPrRiU-HdOqQf_-5" value="t_marks" style="ellipse;whiteSpace=wrap;html=1;align=center;rounded=0;" parent="1" vertex="1">
          <mxGeometry x="527.5" y="955" width="80" height="25" as="geometry" />
        </mxCell>
        <mxCell id="mGdPpXEPrRiU-HdOqQf_-6" value="" style="endArrow=none;html=1;rounded=0;exitX=1;exitY=0.5;exitDx=0;exitDy=0;entryX=0;entryY=0;entryDx=0;entryDy=0;" parent="1" source="1Q4ybMo_WvViaDkqTn1m-64" target="mGdPpXEPrRiU-HdOqQf_-5" edge="1">
          <mxGeometry relative="1" as="geometry">
            <mxPoint x="515" y="948" as="sourcePoint" />
            <mxPoint x="509" y="990" as="targetPoint" />
          </mxGeometry>
        </mxCell>
        <mxCell id="mGdPpXEPrRiU-HdOqQf_-7" value="m_distribution" style="whiteSpace=wrap;html=1;align=center;rounded=0;" parent="1" vertex="1">
          <mxGeometry x="710" y="568" width="90" height="30" as="geometry" />
        </mxCell>
        <mxCell id="mGdPpXEPrRiU-HdOqQf_-10" value="lab" style="ellipse;whiteSpace=wrap;html=1;align=center;rounded=0;" parent="1" vertex="1">
          <mxGeometry x="815" y="552.25" width="80" height="25" as="geometry" />
        </mxCell>
        <mxCell id="mGdPpXEPrRiU-HdOqQf_-14" value="" style="endArrow=none;html=1;rounded=0;exitX=0;exitY=1;exitDx=0;exitDy=0;entryX=1;entryY=0.25;entryDx=0;entryDy=0;" parent="1" source="mGdPpXEPrRiU-HdOqQf_-10" target="mGdPpXEPrRiU-HdOqQf_-7" edge="1">
          <mxGeometry relative="1" as="geometry">
            <mxPoint x="900" y="590" as="sourcePoint" />
            <mxPoint x="810" y="593" as="targetPoint" />
          </mxGeometry>
        </mxCell>
        <mxCell id="mGdPpXEPrRiU-HdOqQf_-16" value="HW" style="ellipse;whiteSpace=wrap;html=1;align=center;rounded=0;" parent="1" vertex="1">
          <mxGeometry x="700" y="624" width="80" height="25" as="geometry" />
        </mxCell>
        <mxCell id="mGdPpXEPrRiU-HdOqQf_-17" value="mid" style="ellipse;whiteSpace=wrap;html=1;align=center;rounded=0;" parent="1" vertex="1">
          <mxGeometry x="820" y="610.25" width="80" height="25" as="geometry" />
        </mxCell>
        <mxCell id="mGdPpXEPrRiU-HdOqQf_-18" value="final" style="ellipse;whiteSpace=wrap;html=1;align=center;rounded=0;" parent="1" vertex="1">
          <mxGeometry x="810" y="650" width="80" height="25" as="geometry" />
        </mxCell>
        <mxCell id="mGdPpXEPrRiU-HdOqQf_-19" value="other" style="ellipse;whiteSpace=wrap;html=1;align=center;rounded=0;" parent="1" vertex="1">
          <mxGeometry x="670" y="686" width="80" height="25" as="geometry" />
        </mxCell>
        <mxCell id="mGdPpXEPrRiU-HdOqQf_-20" value="assignment" style="ellipse;whiteSpace=wrap;html=1;align=center;rounded=0;" parent="1" vertex="1">
          <mxGeometry x="730" y="711" width="80" height="25" as="geometry" />
        </mxCell>
        <mxCell id="mGdPpXEPrRiU-HdOqQf_-21" value="" style="endArrow=none;html=1;rounded=0;exitX=0;exitY=0;exitDx=0;exitDy=0;entryX=0.75;entryY=1;entryDx=0;entryDy=0;" parent="1" source="mGdPpXEPrRiU-HdOqQf_-17" target="mGdPpXEPrRiU-HdOqQf_-7" edge="1">
          <mxGeometry relative="1" as="geometry">
            <mxPoint x="900" y="590" as="sourcePoint" />
            <mxPoint x="810" y="593" as="targetPoint" />
          </mxGeometry>
        </mxCell>
        <mxCell id="mGdPpXEPrRiU-HdOqQf_-22" value="" style="endArrow=none;html=1;rounded=0;entryX=0.5;entryY=1;entryDx=0;entryDy=0;" parent="1" source="mGdPpXEPrRiU-HdOqQf_-18" target="mGdPpXEPrRiU-HdOqQf_-7" edge="1">
          <mxGeometry relative="1" as="geometry">
            <mxPoint x="910" y="600" as="sourcePoint" />
            <mxPoint x="820" y="603" as="targetPoint" />
          </mxGeometry>
        </mxCell>
        <mxCell id="mGdPpXEPrRiU-HdOqQf_-23" value="" style="endArrow=none;html=1;rounded=0;exitX=0.5;exitY=0;exitDx=0;exitDy=0;entryX=0.25;entryY=1;entryDx=0;entryDy=0;" parent="1" source="mGdPpXEPrRiU-HdOqQf_-16" target="mGdPpXEPrRiU-HdOqQf_-7" edge="1">
          <mxGeometry relative="1" as="geometry">
            <mxPoint x="920" y="610" as="sourcePoint" />
            <mxPoint x="830" y="613" as="targetPoint" />
          </mxGeometry>
        </mxCell>
        <mxCell id="mGdPpXEPrRiU-HdOqQf_-24" value="" style="endArrow=none;html=1;rounded=0;exitX=0.5;exitY=0;exitDx=0;exitDy=0;" parent="1" source="mGdPpXEPrRiU-HdOqQf_-19" target="mGdPpXEPrRiU-HdOqQf_-16" edge="1">
          <mxGeometry relative="1" as="geometry">
            <mxPoint x="910" y="582" as="sourcePoint" />
            <mxPoint x="720" y="611" as="targetPoint" />
          </mxGeometry>
        </mxCell>
        <mxCell id="mGdPpXEPrRiU-HdOqQf_-25" value="" style="endArrow=none;html=1;rounded=0;exitX=0.387;exitY=0.03;exitDx=0;exitDy=0;entryX=0.756;entryY=0.899;entryDx=0;entryDy=0;exitPerimeter=0;entryPerimeter=0;" parent="1" source="mGdPpXEPrRiU-HdOqQf_-20" target="mGdPpXEPrRiU-HdOqQf_-16" edge="1">
          <mxGeometry relative="1" as="geometry">
            <mxPoint x="940" y="630" as="sourcePoint" />
            <mxPoint x="850" y="633" as="targetPoint" />
          </mxGeometry>
        </mxCell>
        <mxCell id="mGdPpXEPrRiU-HdOqQf_-26" value="quiz" style="ellipse;whiteSpace=wrap;html=1;align=center;rounded=0;" parent="1" vertex="1">
          <mxGeometry x="780" y="686" width="80" height="25" as="geometry" />
        </mxCell>
        <mxCell id="mGdPpXEPrRiU-HdOqQf_-27" value="" style="endArrow=none;html=1;rounded=0;entryX=1;entryY=1;entryDx=0;entryDy=0;exitX=0.387;exitY=0.03;exitDx=0;exitDy=0;exitPerimeter=0;" parent="1" source="mGdPpXEPrRiU-HdOqQf_-26" target="mGdPpXEPrRiU-HdOqQf_-16" edge="1">
          <mxGeometry relative="1" as="geometry">
            <mxPoint x="820" y="714" as="sourcePoint" />
            <mxPoint x="790" y="680" as="targetPoint" />
          </mxGeometry>
        </mxCell>
        <mxCell id="mGdPpXEPrRiU-HdOqQf_-29" value="has" style="shape=rhombus;perimeter=rhombusPerimeter;whiteSpace=wrap;html=1;align=center;rounded=0;" parent="1" vertex="1">
          <mxGeometry x="600" y="550.25" width="65" height="60" as="geometry" />
        </mxCell>
        <mxCell id="Xw933ilI-_a8GumSRNRo-1" value="" style="fontSize=12;html=1;endArrow=ERmandOne;rounded=0;entryX=0.75;entryY=0;entryDx=0;entryDy=0;edgeStyle=orthogonalEdgeStyle;exitX=0.5;exitY=0;exitDx=0;exitDy=0;" parent="1" source="mGdPpXEPrRiU-HdOqQf_-29" target="pRzVGngoA3gTcLtupPJn-53" edge="1">
          <mxGeometry width="100" height="100" relative="1" as="geometry">
            <mxPoint x="651" y="601" as="sourcePoint" />
            <mxPoint x="76" y="416.5" as="targetPoint" />
            <Array as="points">
              <mxPoint x="633" y="450" />
              <mxPoint x="115" y="450" />
            </Array>
          </mxGeometry>
        </mxCell>
        <mxCell id="Xw933ilI-_a8GumSRNRo-2" value="" style="fontSize=12;html=1;endArrow=ERmandOne;rounded=0;" parent="1" source="pRzVGngoA3gTcLtupPJn-61" target="pRzVGngoA3gTcLtupPJn-53" edge="1">
          <mxGeometry width="100" height="100" relative="1" as="geometry">
            <mxPoint x="247" y="550" as="sourcePoint" />
            <mxPoint x="135" y="550" as="targetPoint" />
          </mxGeometry>
        </mxCell>
        <mxCell id="fV8LHWm-Pb_DjaEBI3IH-3" value="" style="endArrow=none;html=1;rounded=0;entryX=0.938;entryY=0.939;entryDx=0;entryDy=0;entryPerimeter=0;exitX=0.074;exitY=0.317;exitDx=0;exitDy=0;exitPerimeter=0;" edge="1" parent="1" source="fV8LHWm-Pb_DjaEBI3IH-18" target="pRzVGngoA3gTcLtupPJn-2">
          <mxGeometry relative="1" as="geometry">
            <mxPoint x="445" y="202" as="sourcePoint" />
            <mxPoint x="430" y="280" as="targetPoint" />
          </mxGeometry>
        </mxCell>
        <mxCell id="fV8LHWm-Pb_DjaEBI3IH-5" value="Small&lt;br&gt;task" style="shape=rhombus;perimeter=rhombusPerimeter;whiteSpace=wrap;html=1;align=center;rounded=0;" vertex="1" parent="1">
          <mxGeometry x="-100" y="950" width="70" height="60" as="geometry" />
        </mxCell>
        <mxCell id="fV8LHWm-Pb_DjaEBI3IH-6" value="smallTskid" style="ellipse;whiteSpace=wrap;html=1;align=center;rounded=0;" vertex="1" parent="1">
          <mxGeometry x="-205" y="987.5" width="80" height="25" as="geometry" />
        </mxCell>
        <mxCell id="fV8LHWm-Pb_DjaEBI3IH-7" value="st_id" style="ellipse;whiteSpace=wrap;html=1;align=center;fontStyle=4;rounded=0;" vertex="1" parent="1">
          <mxGeometry x="-35" y="1012.5" width="80" height="30" as="geometry" />
        </mxCell>
        <mxCell id="fV8LHWm-Pb_DjaEBI3IH-8" value="" style="endArrow=none;html=1;rounded=0;entryX=0;entryY=0.5;entryDx=0;entryDy=0;exitX=1;exitY=0.5;exitDx=0;exitDy=0;" edge="1" parent="1" source="fV8LHWm-Pb_DjaEBI3IH-6" target="fV8LHWm-Pb_DjaEBI3IH-5">
          <mxGeometry relative="1" as="geometry">
            <mxPoint x="-332" y="960" as="sourcePoint" />
            <mxPoint x="-360" y="995" as="targetPoint" />
          </mxGeometry>
        </mxCell>
        <mxCell id="fV8LHWm-Pb_DjaEBI3IH-9" value="" style="endArrow=none;html=1;rounded=0;exitX=0;exitY=1;exitDx=0;exitDy=0;" edge="1" parent="1" source="fV8LHWm-Pb_DjaEBI3IH-7" target="fV8LHWm-Pb_DjaEBI3IH-5">
          <mxGeometry relative="1" as="geometry">
            <mxPoint x="-12" y="1020" as="sourcePoint" />
            <mxPoint x="-40" y="1055" as="targetPoint" />
          </mxGeometry>
        </mxCell>
        <mxCell id="fV8LHWm-Pb_DjaEBI3IH-10" value="" style="fontSize=12;html=1;endArrow=ERoneToMany;rounded=0;edgeStyle=orthogonalEdgeStyle;exitX=0.5;exitY=0;exitDx=0;exitDy=0;" edge="1" parent="1" source="fV8LHWm-Pb_DjaEBI3IH-5">
          <mxGeometry width="100" height="100" relative="1" as="geometry">
            <mxPoint x="-95" y="950" as="sourcePoint" />
            <mxPoint x="438.0476190476188" y="775" as="targetPoint" />
            <Array as="points">
              <mxPoint x="-70" y="950" />
              <mxPoint x="-70" y="890" />
              <mxPoint x="438" y="890" />
            </Array>
          </mxGeometry>
        </mxCell>
        <mxCell id="fV8LHWm-Pb_DjaEBI3IH-11" value="" style="fontSize=12;html=1;endArrow=ERoneToMany;rounded=0;exitX=0;exitY=0.5;exitDx=0;exitDy=0;entryX=0.75;entryY=1;entryDx=0;entryDy=0;edgeStyle=orthogonalEdgeStyle;" edge="1" parent="1" source="fV8LHWm-Pb_DjaEBI3IH-5" target="224Rd8baaD4bm7rIzMbj-3">
          <mxGeometry width="100" height="100" relative="1" as="geometry">
            <mxPoint x="-345" y="1216" as="sourcePoint" />
            <mxPoint x="-480" y="730" as="targetPoint" />
          </mxGeometry>
        </mxCell>
        <mxCell id="fV8LHWm-Pb_DjaEBI3IH-12" value="year" style="ellipse;whiteSpace=wrap;html=1;align=center;rounded=0;" vertex="1" parent="1">
          <mxGeometry x="42" y="589.5" width="65" height="25" as="geometry" />
        </mxCell>
        <mxCell id="fV8LHWm-Pb_DjaEBI3IH-13" value="" style="endArrow=none;html=1;rounded=0;exitX=0.25;exitY=1;exitDx=0;exitDy=0;entryX=0.641;entryY=0.09;entryDx=0;entryDy=0;entryPerimeter=0;" edge="1" parent="1" source="pRzVGngoA3gTcLtupPJn-53" target="fV8LHWm-Pb_DjaEBI3IH-12">
          <mxGeometry relative="1" as="geometry">
            <mxPoint x="70" y="613" as="sourcePoint" />
            <mxPoint x="117" y="600" as="targetPoint" />
          </mxGeometry>
        </mxCell>
        <mxCell id="fV8LHWm-Pb_DjaEBI3IH-18" value="&lt;span style=&quot;border-bottom: 1px dotted&quot;&gt;HID&lt;/span&gt;" style="ellipse;whiteSpace=wrap;html=1;align=center;" vertex="1" parent="1">
          <mxGeometry x="431" y="190" width="85" height="30" as="geometry" />
        </mxCell>
        <mxCell id="fV8LHWm-Pb_DjaEBI3IH-19" value="&lt;span style=&quot;border-bottom: 1px dotted&quot;&gt;TID&lt;/span&gt;" style="ellipse;whiteSpace=wrap;html=1;align=center;" vertex="1" parent="1">
          <mxGeometry x="-315" y="371" width="85" height="30" as="geometry" />
        </mxCell>
        <mxCell id="fV8LHWm-Pb_DjaEBI3IH-20" value="" style="endArrow=none;html=1;rounded=0;entryX=0;entryY=1;entryDx=0;entryDy=0;exitX=1;exitY=0;exitDx=0;exitDy=0;" edge="1" parent="1" source="pRzVGngoA3gTcLtupPJn-75" target="fV8LHWm-Pb_DjaEBI3IH-19">
          <mxGeometry relative="1" as="geometry">
            <mxPoint x="-300" y="425" as="sourcePoint" />
            <mxPoint x="-259" y="390" as="targetPoint" />
          </mxGeometry>
        </mxCell>
        <mxCell id="fV8LHWm-Pb_DjaEBI3IH-25" value="grandTotal" style="ellipse;whiteSpace=wrap;html=1;align=center;rounded=0;" vertex="1" parent="1">
          <mxGeometry x="763" y="517" width="80" height="25" as="geometry" />
        </mxCell>
        <mxCell id="fV8LHWm-Pb_DjaEBI3IH-26" value="" style="endArrow=none;html=1;rounded=0;exitX=0.61;exitY=-0.011;exitDx=0;exitDy=0;entryX=0.355;entryY=0.912;entryDx=0;entryDy=0;exitPerimeter=0;entryPerimeter=0;" edge="1" parent="1" source="mGdPpXEPrRiU-HdOqQf_-7" target="fV8LHWm-Pb_DjaEBI3IH-25">
          <mxGeometry relative="1" as="geometry">
            <mxPoint x="833" y="556" as="sourcePoint" />
            <mxPoint x="780" y="540" as="targetPoint" />
          </mxGeometry>
        </mxCell>
        <mxCell id="fV8LHWm-Pb_DjaEBI3IH-27" value="" style="fontSize=12;html=1;endArrow=ERoneToMany;rounded=0;entryX=0;entryY=0.5;entryDx=0;entryDy=0;" edge="1" parent="1" source="mGdPpXEPrRiU-HdOqQf_-29" target="mGdPpXEPrRiU-HdOqQf_-7">
          <mxGeometry width="100" height="100" relative="1" as="geometry">
            <mxPoint x="340" y="640" as="sourcePoint" />
            <mxPoint x="440" y="540" as="targetPoint" />
          </mxGeometry>
        </mxCell>
        <mxCell id="fV8LHWm-Pb_DjaEBI3IH-30" value="session" style="ellipse;whiteSpace=wrap;html=1;align=center;rounded=0;" vertex="1" parent="1">
          <mxGeometry x="138.5" y="583.5" width="65" height="25" as="geometry" />
        </mxCell>
        <mxCell id="fV8LHWm-Pb_DjaEBI3IH-33" value="" style="endArrow=none;html=1;rounded=0;entryX=0;entryY=0;entryDx=0;entryDy=0;" edge="1" parent="1" source="pRzVGngoA3gTcLtupPJn-53" target="fV8LHWm-Pb_DjaEBI3IH-30">
          <mxGeometry relative="1" as="geometry">
            <mxPoint x="80" y="580" as="sourcePoint" />
            <mxPoint x="89" y="607" as="targetPoint" />
          </mxGeometry>
        </mxCell>
        <mxCell id="fV8LHWm-Pb_DjaEBI3IH-34" value="section" style="ellipse;whiteSpace=wrap;html=1;align=center;rounded=0;" vertex="1" parent="1">
          <mxGeometry x="-255" y="591" width="65" height="25" as="geometry" />
        </mxCell>
        <mxCell id="fV8LHWm-Pb_DjaEBI3IH-35" value="" style="endArrow=none;html=1;rounded=0;entryX=0.429;entryY=0.902;entryDx=0;entryDy=0;entryPerimeter=0;" edge="1" parent="1" source="fV8LHWm-Pb_DjaEBI3IH-34" target="pRzVGngoA3gTcLtupPJn-59">
          <mxGeometry relative="1" as="geometry">
            <mxPoint x="-230" y="620" as="sourcePoint" />
            <mxPoint x="-136" y="580" as="targetPoint" />
          </mxGeometry>
        </mxCell>
        <mxCell id="fV8LHWm-Pb_DjaEBI3IH-37" value="Semester" style="ellipse;whiteSpace=wrap;html=1;align=center;rounded=0;" vertex="1" parent="1">
          <mxGeometry x="-90" y="591" width="65" height="25" as="geometry" />
        </mxCell>
        <mxCell id="fV8LHWm-Pb_DjaEBI3IH-38" value="" style="endArrow=none;html=1;rounded=0;exitX=0.571;exitY=0.937;exitDx=0;exitDy=0;exitPerimeter=0;" edge="1" parent="1" source="pRzVGngoA3gTcLtupPJn-57" target="fV8LHWm-Pb_DjaEBI3IH-37">
          <mxGeometry relative="1" as="geometry">
            <mxPoint x="-80" y="586" as="sourcePoint" />
            <mxPoint x="-34" y="580" as="targetPoint" />
          </mxGeometry>
        </mxCell>
        <mxCell id="fV8LHWm-Pb_DjaEBI3IH-40" value="&lt;span style=&quot;border-bottom: 1px dotted&quot;&gt;TypeID&lt;/span&gt;" style="ellipse;whiteSpace=wrap;html=1;align=center;" vertex="1" parent="1">
          <mxGeometry x="526" y="800" width="74" height="30" as="geometry" />
        </mxCell>
        <mxCell id="fV8LHWm-Pb_DjaEBI3IH-41" value="" style="fontSize=12;html=1;endArrow=ERmandOne;rounded=0;entryX=0.596;entryY=0.925;entryDx=0;entryDy=0;entryPerimeter=0;exitX=0;exitY=0.5;exitDx=0;exitDy=0;edgeStyle=orthogonalEdgeStyle;" edge="1" parent="1" source="1Q4ybMo_WvViaDkqTn1m-37">
          <mxGeometry width="100" height="100" relative="1" as="geometry">
            <mxPoint x="371.02999999999975" y="641.4200000000001" as="sourcePoint" />
            <mxPoint x="111.67999999999984" y="564.75" as="targetPoint" />
          </mxGeometry>
        </mxCell>
        <mxCell id="fV8LHWm-Pb_DjaEBI3IH-42" value="" style="fontSize=12;html=1;endArrow=ERoneToMany;rounded=0;exitX=1;exitY=0;exitDx=0;exitDy=0;entryX=0.337;entryY=0.08;entryDx=0;entryDy=0;edgeStyle=orthogonalEdgeStyle;entryPerimeter=0;" edge="1" parent="1" source="1Q4ybMo_WvViaDkqTn1m-16" target="pRzVGngoA3gTcLtupPJn-53">
          <mxGeometry width="100" height="100" relative="1" as="geometry">
            <mxPoint x="-30" y="484" as="sourcePoint" />
            <mxPoint x="25" y="430" as="targetPoint" />
          </mxGeometry>
        </mxCell>
        <mxCell id="fV8LHWm-Pb_DjaEBI3IH-43" value="OC-ID" style="ellipse;whiteSpace=wrap;html=1;align=center;fontStyle=4;rounded=0;" vertex="1" parent="1">
          <mxGeometry x="1" y="486" width="70" height="25" as="geometry" />
        </mxCell>
        <mxCell id="fV8LHWm-Pb_DjaEBI3IH-44" value="" style="endArrow=none;html=1;rounded=0;exitX=0.792;exitY=0.849;exitDx=0;exitDy=0;exitPerimeter=0;" edge="1" parent="1" source="fV8LHWm-Pb_DjaEBI3IH-43" target="pRzVGngoA3gTcLtupPJn-53">
          <mxGeometry relative="1" as="geometry">
            <mxPoint x="60" y="510" as="sourcePoint" />
            <mxPoint x="113" y="510" as="targetPoint" />
          </mxGeometry>
        </mxCell>
        <mxCell id="fV8LHWm-Pb_DjaEBI3IH-45" value="pre_rep" style="ellipse;whiteSpace=wrap;html=1;align=center;rounded=0;" vertex="1" parent="1">
          <mxGeometry x="244" y="350" width="80" height="25" as="geometry" />
        </mxCell>
        <mxCell id="fV8LHWm-Pb_DjaEBI3IH-46" value="" style="endArrow=none;html=1;rounded=0;exitX=0;exitY=0.5;exitDx=0;exitDy=0;" edge="1" parent="1" source="fV8LHWm-Pb_DjaEBI3IH-45" target="lFU9lBgxOi-jTrkBJJmm-3">
          <mxGeometry relative="1" as="geometry">
            <mxPoint x="200" y="250" as="sourcePoint" />
            <mxPoint x="150" y="287" as="targetPoint" />
          </mxGeometry>
        </mxCell>
        <mxCell id="fV8LHWm-Pb_DjaEBI3IH-49" value="obt_marks" style="ellipse;whiteSpace=wrap;html=1;align=center;rounded=0;" vertex="1" parent="1">
          <mxGeometry x="-86.5" y="744" width="80" height="22.96" as="geometry" />
        </mxCell>
        <mxCell id="fV8LHWm-Pb_DjaEBI3IH-50" value="" style="endArrow=none;html=1;rounded=0;exitX=1;exitY=0;exitDx=0;exitDy=0;" edge="1" parent="1" target="fV8LHWm-Pb_DjaEBI3IH-49" source="1Q4ybMo_WvViaDkqTn1m-42">
          <mxGeometry relative="1" as="geometry">
            <mxPoint x="-83.62857157417011" y="720.0017583761569" as="sourcePoint" />
            <mxPoint x="-102.5" y="817.96" as="targetPoint" />
          </mxGeometry>
        </mxCell>
        <mxCell id="fV8LHWm-Pb_DjaEBI3IH-51" value="lab" style="ellipse;whiteSpace=wrap;html=1;align=center;rounded=0;" vertex="1" parent="1">
          <mxGeometry x="170" y="235" width="80" height="25" as="geometry" />
        </mxCell>
        <mxCell id="fV8LHWm-Pb_DjaEBI3IH-52" value="" style="endArrow=none;html=1;rounded=0;exitX=0;exitY=0;exitDx=0;exitDy=0;entryX=0.75;entryY=0;entryDx=0;entryDy=0;" edge="1" parent="1" source="fV8LHWm-Pb_DjaEBI3IH-51" target="pRzVGngoA3gTcLtupPJn-22">
          <mxGeometry relative="1" as="geometry">
            <mxPoint x="170" y="240" as="sourcePoint" />
            <mxPoint x="119" y="258" as="targetPoint" />
          </mxGeometry>
        </mxCell>
        <mxCell id="fV8LHWm-Pb_DjaEBI3IH-53" value="&lt;span style=&quot;border-bottom: 1px dotted&quot;&gt;PID&lt;/span&gt;" style="ellipse;whiteSpace=wrap;html=1;align=center;" vertex="1" parent="1">
          <mxGeometry x="-185" y="494" width="85" height="30" as="geometry" />
        </mxCell>
        <mxCell id="fV8LHWm-Pb_DjaEBI3IH-54" value="" style="endArrow=none;html=1;rounded=0;entryX=0;entryY=1;entryDx=0;entryDy=0;exitX=0.626;exitY=0.125;exitDx=0;exitDy=0;exitPerimeter=0;" edge="1" parent="1" source="pRzVGngoA3gTcLtupPJn-59" target="fV8LHWm-Pb_DjaEBI3IH-53">
          <mxGeometry relative="1" as="geometry">
            <mxPoint x="-167" y="560" as="sourcePoint" />
            <mxPoint x="-170" y="530" as="targetPoint" />
          </mxGeometry>
        </mxCell>
        <mxCell id="fV8LHWm-Pb_DjaEBI3IH-57" value="" style="endArrow=none;html=1;rounded=0;exitX=0;exitY=0;exitDx=0;exitDy=0;entryX=0.615;entryY=0.069;entryDx=0;entryDy=0;entryPerimeter=0;" edge="1" parent="1" source="fV8LHWm-Pb_DjaEBI3IH-58" target="1Q4ybMo_WvViaDkqTn1m-38">
          <mxGeometry relative="1" as="geometry">
            <mxPoint x="567.2200000000003" y="695.0999999999999" as="sourcePoint" />
            <mxPoint x="526" y="649" as="targetPoint" />
          </mxGeometry>
        </mxCell>
        <mxCell id="fV8LHWm-Pb_DjaEBI3IH-58" value="&lt;span style=&quot;border-bottom: 1px dotted&quot;&gt;OC-ID&lt;/span&gt;" style="ellipse;whiteSpace=wrap;html=1;align=center;" vertex="1" parent="1">
          <mxGeometry x="540" y="675" width="74" height="30" as="geometry" />
        </mxCell>
        <mxCell id="fV8LHWm-Pb_DjaEBI3IH-59" value="MD-ID" style="ellipse;whiteSpace=wrap;html=1;align=center;fontStyle=4;rounded=0;" vertex="1" parent="1">
          <mxGeometry x="670" y="508" width="80" height="30" as="geometry" />
        </mxCell>
        <mxCell id="fV8LHWm-Pb_DjaEBI3IH-60" value="" style="endArrow=none;html=1;rounded=0;exitX=0.5;exitY=1;exitDx=0;exitDy=0;entryX=0.25;entryY=0;entryDx=0;entryDy=0;" edge="1" parent="1" source="fV8LHWm-Pb_DjaEBI3IH-59" target="mGdPpXEPrRiU-HdOqQf_-7">
          <mxGeometry relative="1" as="geometry">
            <mxPoint x="610" y="450" as="sourcePoint" />
            <mxPoint x="665" y="565" as="targetPoint" />
          </mxGeometry>
        </mxCell>
        <mxCell id="fV8LHWm-Pb_DjaEBI3IH-61" value="" style="endArrow=none;html=1;rounded=0;exitX=0;exitY=0;exitDx=0;exitDy=0;" edge="1" parent="1" source="fV8LHWm-Pb_DjaEBI3IH-62" target="mGdPpXEPrRiU-HdOqQf_-7">
          <mxGeometry relative="1" as="geometry">
            <mxPoint x="897.2200000000003" y="598.5999999999999" as="sourcePoint" />
            <mxPoint x="927" y="479" as="targetPoint" />
          </mxGeometry>
        </mxCell>
        <mxCell id="fV8LHWm-Pb_DjaEBI3IH-62" value="&lt;span style=&quot;border-bottom: 1px dotted&quot;&gt;OC-ID&lt;/span&gt;" style="ellipse;whiteSpace=wrap;html=1;align=center;" vertex="1" parent="1">
          <mxGeometry x="870" y="578.5" width="74" height="30" as="geometry" />
        </mxCell>
        <mxCell id="fV8LHWm-Pb_DjaEBI3IH-63" value="" style="endArrow=none;html=1;rounded=0;exitX=0;exitY=0;exitDx=0;exitDy=0;entryX=0;entryY=0;entryDx=0;entryDy=0;" edge="1" parent="1" source="fV8LHWm-Pb_DjaEBI3IH-64" target="mGdPpXEPrRiU-HdOqQf_-16">
          <mxGeometry relative="1" as="geometry">
            <mxPoint x="770.2200000000003" y="640.0999999999999" as="sourcePoint" />
            <mxPoint x="680" y="692" as="targetPoint" />
          </mxGeometry>
        </mxCell>
        <mxCell id="fV8LHWm-Pb_DjaEBI3IH-64" value="&lt;span style=&quot;border-bottom: 1px dotted&quot;&gt;MD-ID&lt;/span&gt;" style="ellipse;whiteSpace=wrap;html=1;align=center;" vertex="1" parent="1">
          <mxGeometry x="600" y="626" width="77" height="30" as="geometry" />
        </mxCell>
        <mxCell id="fV8LHWm-Pb_DjaEBI3IH-65" value="HW-ID" style="ellipse;whiteSpace=wrap;html=1;align=center;fontStyle=4;rounded=0;" vertex="1" parent="1">
          <mxGeometry x="616" y="660" width="80" height="30" as="geometry" />
        </mxCell>
        <mxCell id="fV8LHWm-Pb_DjaEBI3IH-66" value="" style="endArrow=none;html=1;rounded=0;" edge="1" parent="1" source="fV8LHWm-Pb_DjaEBI3IH-65" target="mGdPpXEPrRiU-HdOqQf_-16">
          <mxGeometry relative="1" as="geometry">
            <mxPoint x="556" y="602" as="sourcePoint" />
            <mxPoint x="607.4973272220636" y="755.2700531624421" as="targetPoint" />
          </mxGeometry>
        </mxCell>
        <mxCell id="fV8LHWm-Pb_DjaEBI3IH-67" value="&lt;span style=&quot;border-bottom: 1px dotted&quot;&gt;tsk_id&lt;/span&gt;" style="ellipse;whiteSpace=wrap;html=1;align=center;" vertex="1" parent="1">
          <mxGeometry x="470" y="980" width="74" height="30" as="geometry" />
        </mxCell>
        <mxCell id="fV8LHWm-Pb_DjaEBI3IH-68" value="" style="endArrow=none;html=1;rounded=0;" edge="1" parent="1" source="fV8LHWm-Pb_DjaEBI3IH-67" target="1Q4ybMo_WvViaDkqTn1m-64">
          <mxGeometry relative="1" as="geometry">
            <mxPoint x="525" y="990" as="sourcePoint" />
            <mxPoint x="480" y="960" as="targetPoint" />
          </mxGeometry>
        </mxCell>
        <mxCell id="fV8LHWm-Pb_DjaEBI3IH-69" value="difficulty_level" style="ellipse;whiteSpace=wrap;html=1;align=center;rounded=0;" vertex="1" parent="1">
          <mxGeometry x="560" y="913" width="80" height="25" as="geometry" />
        </mxCell>
        <mxCell id="fV8LHWm-Pb_DjaEBI3IH-70" value="" style="endArrow=none;html=1;rounded=0;exitX=1;exitY=0.5;exitDx=0;exitDy=0;" edge="1" parent="1" source="1Q4ybMo_WvViaDkqTn1m-64" target="fV8LHWm-Pb_DjaEBI3IH-69">
          <mxGeometry relative="1" as="geometry">
            <mxPoint x="520" y="900" as="sourcePoint" />
            <mxPoint x="554" y="936" as="targetPoint" />
          </mxGeometry>
        </mxCell>
        <mxCell id="fV8LHWm-Pb_DjaEBI3IH-71" value="is a" style="shape=rhombus;perimeter=rhombusPerimeter;whiteSpace=wrap;html=1;align=center;rounded=0;" vertex="1" parent="1">
          <mxGeometry x="428" y="386" width="70" height="52" as="geometry" />
        </mxCell>
        <mxCell id="fV8LHWm-Pb_DjaEBI3IH-74" value="Advisor" style="whiteSpace=wrap;html=1;align=center;rounded=0;" vertex="1" parent="1">
          <mxGeometry x="560" y="388.5" width="80" height="30" as="geometry" />
        </mxCell>
        <mxCell id="fV8LHWm-Pb_DjaEBI3IH-75" value="" style="fontSize=12;html=1;endArrow=ERmandOne;rounded=0;startSize=8;endSize=8;entryX=0.377;entryY=0.035;entryDx=0;entryDy=0;exitX=0.173;exitY=0.672;exitDx=0;exitDy=0;entryPerimeter=0;edgeStyle=orthogonalEdgeStyle;exitPerimeter=0;" edge="1" parent="1" source="fV8LHWm-Pb_DjaEBI3IH-71" target="pRzVGngoA3gTcLtupPJn-63">
          <mxGeometry width="100" height="100" relative="1" as="geometry">
            <mxPoint x="498" y="120" as="sourcePoint" />
            <mxPoint x="290" y="120" as="targetPoint" />
          </mxGeometry>
        </mxCell>
        <mxCell id="fV8LHWm-Pb_DjaEBI3IH-76" value="" style="fontSize=12;html=1;endArrow=ERoneToMany;rounded=0;entryX=0;entryY=0.25;entryDx=0;entryDy=0;exitX=1;exitY=0.5;exitDx=0;exitDy=0;edgeStyle=orthogonalEdgeStyle;" edge="1" parent="1" source="fV8LHWm-Pb_DjaEBI3IH-71" target="fV8LHWm-Pb_DjaEBI3IH-74">
          <mxGeometry width="100" height="100" relative="1" as="geometry">
            <mxPoint x="532" y="465" as="sourcePoint" />
            <mxPoint x="530" y="390" as="targetPoint" />
          </mxGeometry>
        </mxCell>
        <mxCell id="fV8LHWm-Pb_DjaEBI3IH-77" value="" style="endArrow=none;html=1;rounded=0;exitX=0;exitY=0;exitDx=0;exitDy=0;entryX=1;entryY=0.75;entryDx=0;entryDy=0;" edge="1" parent="1" source="fV8LHWm-Pb_DjaEBI3IH-78" target="fV8LHWm-Pb_DjaEBI3IH-74">
          <mxGeometry relative="1" as="geometry">
            <mxPoint x="731.2200000000003" y="446.0999999999999" as="sourcePoint" />
            <mxPoint x="700" y="400" as="targetPoint" />
          </mxGeometry>
        </mxCell>
        <mxCell id="fV8LHWm-Pb_DjaEBI3IH-78" value="&lt;span style=&quot;border-bottom: 1px dotted&quot;&gt;T_1D&lt;/span&gt;" style="ellipse;whiteSpace=wrap;html=1;align=center;" vertex="1" parent="1">
          <mxGeometry x="689" y="418.5" width="74" height="30" as="geometry" />
        </mxCell>
        <mxCell id="fV8LHWm-Pb_DjaEBI3IH-82" value="session" style="ellipse;whiteSpace=wrap;html=1;align=center;rounded=0;" vertex="1" parent="1">
          <mxGeometry x="660" y="345" width="80" height="25" as="geometry" />
        </mxCell>
        <mxCell id="fV8LHWm-Pb_DjaEBI3IH-83" value="" style="endArrow=none;html=1;rounded=0;exitX=1;exitY=0.25;exitDx=0;exitDy=0;entryX=0.355;entryY=0.912;entryDx=0;entryDy=0;entryPerimeter=0;" edge="1" parent="1" target="fV8LHWm-Pb_DjaEBI3IH-82" source="fV8LHWm-Pb_DjaEBI3IH-74">
          <mxGeometry relative="1" as="geometry">
            <mxPoint x="662" y="396" as="sourcePoint" />
            <mxPoint x="677" y="368" as="targetPoint" />
          </mxGeometry>
        </mxCell>
        <mxCell id="fV8LHWm-Pb_DjaEBI3IH-85" value="semster" style="ellipse;whiteSpace=wrap;html=1;align=center;rounded=0;" vertex="1" parent="1">
          <mxGeometry x="580" y="345" width="80" height="25" as="geometry" />
        </mxCell>
        <mxCell id="fV8LHWm-Pb_DjaEBI3IH-86" value="" style="endArrow=none;html=1;rounded=0;exitX=0.5;exitY=0;exitDx=0;exitDy=0;entryX=0.5;entryY=1;entryDx=0;entryDy=0;" edge="1" parent="1" target="fV8LHWm-Pb_DjaEBI3IH-85" source="fV8LHWm-Pb_DjaEBI3IH-74">
          <mxGeometry relative="1" as="geometry">
            <mxPoint x="612" y="401" as="sourcePoint" />
            <mxPoint x="630" y="370" as="targetPoint" />
          </mxGeometry>
        </mxCell>
        <mxCell id="fV8LHWm-Pb_DjaEBI3IH-87" value="year" style="ellipse;whiteSpace=wrap;html=1;align=center;rounded=0;" vertex="1" parent="1">
          <mxGeometry x="689" y="375" width="80" height="25" as="geometry" />
        </mxCell>
        <mxCell id="fV8LHWm-Pb_DjaEBI3IH-88" value="" style="endArrow=none;html=1;rounded=0;entryX=0.355;entryY=0.912;entryDx=0;entryDy=0;entryPerimeter=0;" edge="1" parent="1" target="fV8LHWm-Pb_DjaEBI3IH-87" source="fV8LHWm-Pb_DjaEBI3IH-74">
          <mxGeometry relative="1" as="geometry">
            <mxPoint x="691" y="426" as="sourcePoint" />
            <mxPoint x="706" y="398" as="targetPoint" />
          </mxGeometry>
        </mxCell>
        <mxCell id="fV8LHWm-Pb_DjaEBI3IH-89" value="" style="endArrow=none;html=1;rounded=0;exitX=0.626;exitY=0.939;exitDx=0;exitDy=0;exitPerimeter=0;" edge="1" parent="1" source="fV8LHWm-Pb_DjaEBI3IH-90" target="fV8LHWm-Pb_DjaEBI3IH-74">
          <mxGeometry relative="1" as="geometry">
            <mxPoint x="536.7200000000003" y="371.0999999999999" as="sourcePoint" />
            <mxPoint x="445.5" y="336" as="targetPoint" />
          </mxGeometry>
        </mxCell>
        <mxCell id="fV8LHWm-Pb_DjaEBI3IH-90" value="&lt;span style=&quot;border-bottom: 1px dotted&quot;&gt;P_1D&lt;/span&gt;" style="ellipse;whiteSpace=wrap;html=1;align=center;" vertex="1" parent="1">
          <mxGeometry x="494.5" y="343.5" width="74" height="30" as="geometry" />
        </mxCell>
      </root>
    </mxGraphModel>
  </diagram>
</mxfile>
